<?xml version="1.0" encoding="UTF-8" standalone="no"?>
<svg width="79px" height="78px" viewBox="0 0 79 78" version="1.1" xmlns="http://www.w3.org/2000/svg" xmlns:xlink="http://www.w3.org/1999/xlink" xmlns:sketch="http://www.bohemiancoding.com/sketch/ns">
    <!-- Generator: Sketch 3.4.4 (17249) - http://www.bohemiancoding.com/sketch -->
    <title>postcss-logo-symbol-white</title>
    <desc>Created with Sketch.</desc>
    <defs></defs>
    <g id="Logo-Variations" stroke="none" stroke-width="1" fill="none" fill-rule="evenodd" sketch:type="MSPage">
        <g id="White" sketch:type="MSArtboardGroup" transform="translate(-65.000000, -77.000000)" fill="#FFFFFF">
            <g id="postcss-logo-horizontal-white" sketch:type="MSLayerGroup" transform="translate(49.000000, 77.000000)">
                <g id="postcss-logo-symbol-white" sketch:type="MSShapeGroup">
                    <path d="M31.4473684,32.622973 C31.5526316,32.702027 31.7368421,32.7547297 31.5526316,32.9128378 C31.4210526,33.0972973 31.2631579,33.2554054 31.1578947,33.4662162 C31.0526316,33.6506757 30.9736842,33.7033784 30.8157895,33.5716216 C31.0263158,33.2290541 31.2368421,32.9128378 31.4473684,32.622973 L31.4473684,32.622973 Z M84.3421053,60.2391892 C84.3421053,60.3182432 84.3684211,60.3709459 84.3684211,60.45 C84.4210526,60.3445946 84.4210526,60.2918919 84.4473684,60.2391892 L84.3421053,60.2391892 L84.3421053,60.2391892 Z M84.3421053,60.4763514 L84.3421053,60.45 L84.3421053,60.4763514 L84.3421053,60.4763514 Z M78.9736842,70.7533784 L74.3947368,45.3506757 C74.3157895,45.3243243 74.2105263,45.2716216 74.0263158,45.2189189 C74.0789474,45.3243243 74.1052632,45.4033784 74.1315789,45.4824324 C74.2631579,45.4560811 74.3157895,45.4560811 74.3684211,45.4297297 C74.3684211,45.4033784 74.3684211,45.377027 74.3947368,45.3506757 L78.9736842,70.7533784 Z M74.2368421,39.6324324 C74.2105263,39.7114865 74.2105263,39.7905405 74.2105263,39.8695946 C74.2105263,39.7905405 74.2105263,39.7114865 74.2368421,39.6324324 L74.2368421,39.6324324 Z M74.2631579,40.1594595 C74.2368421,40.1594595 74.2368421,40.1594595 74.2105263,40.1331081 L74.2105263,40.1594595 C74.2368421,40.1858108 74.2368421,40.1858108 74.2631579,40.1594595 L74.2631579,40.1594595 Z M74.2105263,40.3702703 L74.2105263,40.1858108 C74.1315789,40.2121622 74.0526316,40.2121622 73.9473684,40.2385135 C74.0789474,40.2912162 74.2105263,40.3175676 74.2105263,40.3702703 L74.2105263,40.3702703 Z" id="Shape"></path>
                    <path d="M94.7105263,33.9668919 C94.6578947,32.9391892 94.6315789,31.9114865 94.5263158,30.8837838 C94.3421053,29.4871622 94.1578947,28.0641892 93.8421053,26.6939189 C93.6052632,25.5608108 93.2105263,24.4804054 92.8157895,23.4 C92.3157895,22.1351351 91.8157895,20.8439189 91.1842105,19.6317568 C90.1578947,17.6817568 88.8157895,15.9425676 87.5789474,14.1243243 C86.7631579,12.9648649 85.7105263,12.0162162 84.9210526,10.8304054 C84.4736842,10.1452703 83.8157895,9.56554054 83.1578947,9.03851351 C82.1052632,8.19527027 81,7.43108108 79.8947368,6.69324324 C79.0526316,6.11351351 78.2105263,5.56013514 77.3157895,5.05945946 C76.6052632,4.66418919 75.8421053,4.34797297 75.1052632,4.00540541 C74.2631579,3.61013514 73.4473684,3.13581081 72.5,2.95135135 C72.2631579,2.89864865 72.0526316,2.81959459 71.8157895,2.74054054 C71.2105263,2.52972973 70.6315789,2.29256757 70.0263158,2.10810811 C69.1052632,1.81824324 68.2105263,1.47567568 67.2631579,1.23851351 C66.3421053,1.00135135 65.3947368,0.843243243 64.4473684,0.711486486 C63.3947368,0.553378378 62.3157895,0.500675676 61.2631579,0.39527027 C60.5789474,0.316216216 59.8947368,0.237162162 59.2368421,0.210810811 C58.2368421,0.158108108 57.2105263,0.158108108 56.2105263,0.131756757 C55.7105263,0.105405405 55.1842105,0.0527027027 54.6842105,0.0790540541 C53.9210526,0.105405405 53.1578947,0.184459459 52.3947368,0.289864865 C51.6578947,0.368918919 50.9210526,0.500675676 50.2105263,0.606081081 C49.3421053,0.711486486 48.4736842,0.764189189 47.6052632,0.869594595 C46.7894737,0.975 45.9473684,1.13310811 45.1315789,1.26486486 C44.8421053,1.31756757 44.5526316,1.42297297 44.2631579,1.47567568 C43.6315789,1.60743243 42.9736842,1.66013514 42.3421053,1.87094595 C41.2105263,2.21351351 40.0789474,2.60878378 38.9736842,3.03040541 C37.9473684,3.45202703 36.9473684,3.9 35.9736842,4.42702703 C34.9736842,4.98040541 34.0263158,5.63918919 33.0789474,6.27162162 C32.1842105,6.8777027 31.2894737,7.51013514 30.4210526,8.19527027 C29.5789474,8.85405405 28.7894737,9.59189189 28.0263158,10.3297297 C27.6052632,10.7513514 27.2631579,11.252027 26.8684211,11.7263514 C26.2105263,12.4905405 25.5526316,13.2283784 24.9210526,14.0189189 C24.3947368,14.6777027 23.9210526,15.3628378 23.4210526,16.047973 C22.5263158,17.2601351 21.7631579,18.5513514 21.0526316,19.8425676 C20.7631579,20.3695946 20.5,20.8966216 20.2368421,21.4236486 C19.8421053,22.2141892 19.4210526,22.9783784 19.0526316,23.7952703 C18.7894737,24.3486486 18.5789474,24.9547297 18.4210526,25.5608108 C18.0526316,26.852027 17.6842105,28.1695946 17.3421053,29.4608108 C17.0263158,30.6202703 16.9473684,31.8324324 16.9210526,33.0182432 C16.8947368,34.0722973 17,35.1 17.1052632,36.1540541 C17.1315789,36.4175676 16.9736842,36.7337838 17.2894737,36.9445946 C17.1842105,37.2344595 17.2631579,37.3925676 17.4210526,37.4452703 C17.2368421,37.7351351 17.5,37.9195946 17.3947368,38.1831081 C17.3684211,38.2358108 17.4736842,38.3412162 17.5263158,38.4202703 C17.5263158,38.4993243 17.5,38.6047297 17.5263158,38.6837838 C17.5526316,38.9209459 17.6578947,39.1581081 17.6578947,39.4216216 C17.6578947,39.6060811 17.8157895,39.8168919 17.8684211,40.0013514 C17.8947368,40.0804054 17.8684211,40.2121622 17.8157895,40.2648649 C17.6578947,40.4493243 17.6842105,40.6074324 17.9210526,40.7128378 C18.0526316,41.0554054 18,41.2135135 17.9736842,41.3716216 C18.0263158,41.6087838 17.9473684,41.6878378 17.9736842,41.7405405 C18.1842105,42.1621622 18.2631579,42.6364865 18.2894737,43.1108108 C18.2894737,43.2162162 18.3421053,43.3216216 18.3947368,43.4533784 C18.4210526,43.4533784 18.3947368,43.9540541 18.3947368,43.9540541 C18.5263158,43.875 18.6315789,43.8486486 18.7631579,43.7959459 C18.8421053,44.1385135 18.9210526,44.4547297 19.0263158,44.7445946 C19.1578947,44.9554054 19.1578947,45.0608108 19.1052632,45.0871622 C19.2105263,45.5614865 19.2631579,46.0094595 19.4473684,46.4574324 C19.4473684,45.9567568 19.3947368,45.4560811 19.3157895,44.9817568 C19.6842105,45.1135135 20,45.2452703 20.2105263,45.2452703 C20.2368421,45.1662162 20.2631579,45.0608108 20.2894737,45.0081081 C20.1315789,44.85 20,44.6128378 19.8421053,44.4547297 C19.8947368,44.6655405 19.8421053,44.7445946 19.8421053,44.8236486 C19.7368421,44.7709459 19.6052632,44.7182432 19.4736842,44.6655405 C19.5789474,44.5337838 19.6842105,44.402027 19.8421053,44.2439189 C19.8421053,44.0067568 19.7105263,43.7959459 19.3421053,43.8222973 C19.5,43.7695946 19.6578947,43.6905405 19.8421053,43.6378378 C20.1315789,43.4797297 19.8157895,43.1898649 19.8157895,42.8209459 C19.8421053,42.372973 19.5789474,41.925 19.5,41.4506757 C19.3684211,40.7128378 19.3947368,39.6060811 19.3157895,38.8682432 C19.1578947,38.7364865 19.0263158,39.0790541 19,39.1054054 C19.0789474,39.7378378 19.1578947,40.3702703 19.2105263,41.0027027 C19.0526316,40.4756757 18.9473684,39.8959459 18.8157895,39.2635135 C18.7894737,39.447973 18.7631579,39.527027 18.7631579,39.6324324 C18.6315789,39.7641892 18.7368421,39.9222973 18.8157895,40.1067568 C18.6315789,40.0277027 18.4210526,40.0540541 18.4210526,40.0540541 L18.4210526,40.7918919 C18.1578947,40.5283784 18.0789474,40.3175676 17.9473684,40.1331081 C17.8947368,39.9222973 17.8684211,39.7114865 17.8157895,39.5006757 C17.8684211,39.3689189 17.8157895,39.2898649 17.8157895,39.2108108 C17.7894737,39.0263514 17.7631579,38.8155405 17.7368421,38.5783784 C17.7631579,38.552027 17.7105263,38.1567568 17.7105263,38.1567568 C17.9210526,38.1831081 18.0526316,38.2094595 18.1842105,38.2094595 C17.9210526,37.8668919 18.1052632,37.6560811 18.2105263,37.4452703 C18.2631579,37.3398649 18.4473684,37.3135135 18.5,37.2081081 C18.7105263,36.8128378 19.0526316,36.4966216 19.0526316,35.9959459 C19.0526316,35.7587838 19.1315789,35.4952703 19.1578947,35.2581081 C19.2105263,34.8101351 19.2631579,34.3621622 19.2894737,33.9141892 C19.3421053,33.3344595 19.2894737,32.7547297 19.4210526,32.2013514 C19.6315789,31.2790541 19.8947368,30.3567568 20.1842105,29.4344595 C20.3947368,28.7756757 20.6315789,28.1432432 20.8947368,27.4844595 C21.2894737,26.4567568 21.6578947,25.4290541 22.1578947,24.4540541 C22.8684211,23.0310811 23.6842105,21.6608108 24.4736842,20.2641892 C24.9736842,19.3945946 25.5,18.5777027 26.0526316,17.7344595 C26.5789474,16.9175676 27.1052632,16.0743243 27.7105263,15.3101351 C28.5526316,14.2297297 29.4736842,13.2283784 30.5,12.3324324 C31.5526316,11.3837838 32.5526316,10.4087838 33.6842105,9.53918919 C35.1578947,8.40608108 36.7105263,7.40472973 38.3684211,6.53513514 C39.7105263,5.82364865 41.1052632,5.27027027 42.5,4.74324324 C43.3947368,4.40067568 44.3684211,4.24256757 45.2894737,3.9527027 C46.3421053,3.61013514 47.3947368,3.45202703 48.5,3.42567568 C49.2105263,3.39932432 49.8947368,3.32027027 50.6052632,3.24121622 C51.2368421,3.18851351 51.8684211,3.13581081 52.5526316,3.05675676 C52.4736842,3.16216216 52.4473684,3.21486486 52.4210526,3.26756757 C52.1315789,3.68918919 51.8157895,4.11081081 51.5263158,4.53243243 C51.2894737,4.875 51.0263158,5.24391892 50.7894737,5.58648649 C50.3684211,6.13986486 49.9210526,6.69324324 49.5263158,7.27297297 C48.9210526,8.14256757 48.3684211,9.03851351 47.7368421,9.90810811 C47.1052632,10.7513514 46.4210526,11.5418919 45.7631579,12.3587838 C44.8947368,13.4918919 44.0789474,14.6513514 43.2105263,15.7844595 C42.4210526,16.8648649 41.5789474,17.8925676 40.8157895,18.972973 C40.1315789,19.9216216 39.5263158,20.922973 38.8684211,21.897973 C37.8947368,23.3472973 36.9210526,24.7702703 35.9473684,26.2195946 C35.1842105,27.3263514 34.4210526,28.4067568 33.6315789,29.5135135 C33.5789474,29.5925676 33.5,29.6189189 33.4210526,29.6716216 C33.2105263,30.0141892 33.2105263,30.1986486 33.1315789,30.3567568 C32.9210526,30.752027 32.7105263,31.1472973 32.4736842,31.5162162 C32.3421053,31.727027 32.1578947,31.9114865 32,32.1222973 C31.9736842,31.8060811 32.4210526,31.647973 32.2105263,31.2527027 C32.0789474,31.4635135 31.9473684,31.647973 31.8157895,31.8587838 L31.5,32.4912162 C31.6052632,32.5702703 31.7894737,32.622973 31.6052632,32.7810811 C31.5263158,32.9128378 31.4473684,33.0709459 31.3684211,33.2027027 C31.5,33.1236486 31.5789474,33.0445946 31.6578947,32.9391892 C31.6578947,33.2290541 31.5,33.4662162 31.3684211,33.7033784 C31.2631579,33.9141892 31,34.0722973 30.8157895,34.2304054 C30.8421053,34.2567568 31.0263158,34.3358108 31.0526316,34.3621622 C31.2894737,34.2831081 31.3684211,34.1513514 31.3947368,34.2304054 C31.4736842,34.125 31.5526316,34.0459459 31.5789474,33.9668919 C31.6842105,33.7033784 31.8421053,33.4925676 32.1052632,33.3871622 C32.2105263,33.3344595 32.2894737,33.2554054 32.3684211,33.1763514 C33.1578947,32.3594595 33.9736842,31.5689189 34.6842105,30.6993243 C35.7894737,29.3554054 36.7894737,27.9587838 37.8421053,26.5885135 C38.2894737,26.0087838 38.8157895,25.4290541 39.2894737,24.8756757 C39.3684211,25.4817568 39.3157895,26.0614865 39.2894737,26.6148649 C39.2105263,27.5898649 39.1578947,28.5648649 39.0789474,29.5662162 C39.0526316,29.9614865 39.0789474,30.3567568 39.0526316,30.752027 C39.0526316,30.8574324 38.9736842,30.9364865 38.9736842,31.0418919 C38.9736842,31.3054054 39.0526316,31.5952703 39.0526316,31.8587838 C38.9736842,32.8337838 38.8684211,33.7824324 38.7894737,34.7574324 C38.7631579,34.9682432 38.8684211,35.1790541 38.9210526,35.3635135 C38.7894737,36.7864865 39.0789474,38.2885135 38.8421053,39.7905405 C39.0263158,39.5006757 39.0789474,39.3162162 39.0789474,39.1317568 C39.1052632,38.9736486 39.0789474,38.8155405 39.0789474,38.6310811 L39.0789474,38.3675676 C39.1052632,37.8932432 39.2105263,37.3925676 39.1578947,36.9182432 C39.1052632,36.3912162 39.1052632,35.8905405 39.2105263,35.3898649 C39.2631579,35.1790541 39.1842105,34.9155405 39.3157895,34.652027 L39.3157895,35.0472973 C39.2894737,36.5493243 39.3421053,38.0513514 39.1315789,39.5533784 C39.1052632,39.6851351 39.2105263,39.9222973 38.9210526,39.8959459 C38.6842105,40.3702703 38.9736842,40.7128378 38.7105263,40.9763514 C38.6578947,41.0290541 38.7631579,41.2662162 38.7894737,41.4243243 C38.6842105,41.7405405 38.6842105,41.7405405 38.8421053,41.7668919 C38.8684211,42.3466216 38.9210526,42.8736486 38.9473684,43.427027 C39.3684211,42.4256757 39.1578947,41.397973 39.3421053,40.3702703 C39.3684211,40.7918919 39.3947368,41.2135135 39.3684211,41.6614865 C39.3684211,42.3466216 39.3421053,43.0054054 39.3157895,43.6905405 C39.3157895,43.8222973 39.2894737,43.9540541 39.2631579,44.0858108 C39.1842105,44.4547297 39.1578947,44.8236486 39.0263158,45.1662162 C38.9210526,45.4297297 38.9736842,45.825 38.9736842,46.1412162 L38.9736842,47.1425676 C39.0789474,47.5905405 38.9473684,47.8277027 39.0263158,48.0912162 C38.9473684,48.3547297 38.9210526,48.4337838 38.9473684,48.5128378 L39.0263158,48.9081081 C39.5526316,48.8554054 39.3157895,49.2506757 39.5263158,49.4614865 C39.3684211,49.6722973 39.4210526,49.7513514 39.4210526,49.8567568 C39.4210526,50.0939189 39.3947368,50.3047297 39.3684211,50.5418919 C39.3684211,51.147973 39.3421053,51.7540541 39.3421053,52.3337838 C39.3421053,52.4128378 39.3684211,52.4918919 39.3684211,52.5709459 C39.3684211,52.6236486 39.3421053,53.3087838 39.3421053,53.3087838 C39.3947368,53.3878378 39.3421053,53.4668919 39.2631579,53.5459459 C39.2368421,53.5459459 39.1578947,50.1993243 39.1578947,50.1993243 L38.7631579,50.1993243 C38.7105263,51.7804054 38.8421053,53.2033784 38.5526316,54.6790541 C38.2368421,54.7054054 38.1315789,54.7581081 37.7894737,54.7581081 C36.9736842,54.7581081 36.1578947,54.7581081 35.3421053,54.7844595 C34.3684211,54.7844595 33.4210526,54.8108108 32.4473684,54.8108108 C31.9736842,54.8108108 31.4736842,54.8635135 31,54.8635135 C30.3684211,54.8635135 29.7105263,54.7844595 29.0789474,54.7844595 C28.1052632,54.7844595 27.1578947,54.8635135 26.1842105,54.8898649 C25.4736842,54.9162162 24.7631579,54.9162162 24.0526316,54.9425676 C23.5789474,54.9689189 23.1052632,54.9952703 22.6315789,55.047973 C22.4210526,55.0743243 22.2368421,55.1533784 21.9736842,55.2324324 C21.8947368,55.2324324 21.7105263,55.2060811 21.5526316,55.2324324 C21.2894737,55.2851351 21.0526316,55.4432432 20.7894737,55.4959459 C20.3947368,55.575 20.2894737,55.6804054 20.3421053,56.0756757 L20.3421053,56.3391892 C20.3157895,56.3918919 20.9210526,56.2601351 20.9210526,56.2601351 C20.8684211,56.2601351 20.8421053,56.4182432 20.7631579,56.55 C20.9736842,56.4709459 21.1052632,56.4182432 21.2368421,56.3655405 C21.6315789,56.55 21.9736842,56.4445946 22.2894737,56.5236486 C23.3157895,56.7871622 24.3684211,56.8925676 25.4210526,56.997973 C26.1052632,57.0506757 26.7631579,57.077027 27.4473684,57.1033784 C28.4210526,57.1560811 29.3947368,57.2087838 30.3684211,57.2087838 C31.1842105,57.2087838 31.9736842,57.1297297 32.7894737,57.1297297 C33.9210526,57.1297297 35.0526316,57.1824324 36.1842105,57.2087838 C36.4210526,57.2087838 36.6842105,57.1824324 36.9473684,57.1824324 L38.8684211,57.1824324 C40.5789474,57.1297297 42.2894737,57.1033784 44,57.0506757 C44.9736842,57.0243243 45.9736842,56.9716216 46.9473684,56.9452703 L49.9473684,56.8662162 C51.1052632,56.8398649 52.2631579,56.8398649 53.3947368,56.8135135 C54.2631579,56.8135135 55.1052632,56.7871622 55.9736842,56.7608108 C56.9473684,56.7344595 57.9473684,56.6554054 58.9210526,56.6027027 C59.4473684,56.5763514 59.9736842,56.5236486 60.5,56.4709459 C61.1315789,56.4182432 61.7894737,56.3391892 62.4210526,56.3128378 C63.3684211,56.2601351 64.3421053,56.2337838 65.2894737,56.1810811 C66.4736842,56.102027 67.6578947,55.9966216 68.8684211,55.9702703 C69.9736842,55.9175676 71.1052632,55.9439189 72.2105263,55.9175676 C73.1842105,55.8912162 74.1578947,55.8385135 75.1578947,55.8121622 L76.8157895,55.7331081 C16.3421053,-0.527027027 77.9210526,55.7067568 78.4736842,55.6540541 C79.4210526,55.6013514 80.3684211,55.4959459 81.3157895,55.4695946 C81.9210526,55.4432432 82.5263158,55.4695946 83.1315789,55.4432432 C84.1052632,55.4168919 85.1052632,55.3641892 86.0789474,55.3641892 C86.4473684,55.3641892 86.8421053,55.4168919 87.3157895,55.4432432 C87.1052632,55.6277027 86.9736842,55.7331081 86.8157895,55.8648649 C86.9210526,55.8912162 87.0263158,55.9439189 87.1315789,55.9966216 C86.9736842,56.102027 86.8421053,56.1283784 86.7105263,56.1283784 C86.6578947,56.2601351 86.6052632,56.3128378 86.5526316,56.5763514 L87.0263158,56.5763514 C86.8421053,56.5763514 86.6842105,56.8135135 86.5,56.9716216 C86.2894737,56.9189189 86.1052632,56.9716216 86,57.2614865 C86.1842105,57.3668919 86.1578947,57.4459459 86.1315789,57.5513514 C85.8157895,57.6567568 85.5789474,57.7621622 85.7105263,58.1047297 C85.6052632,58.1574324 85.4736842,58.2101351 85.3421053,58.2891892 C85.2105263,58.5 84.9736842,58.5527027 85.0263158,58.8425676 C85.1315789,58.8689189 85.2368421,58.9216216 85.3157895,58.947973 C85.1842105,59.0006757 85.0526316,59.0797297 84.9210526,59.1324324 C84.4473684,59.4222973 84.6578947,59.5540541 84.7631579,59.6858108 C84.6842105,59.7385135 84.6052632,59.7912162 84.5263158,59.8175676 C84.5789474,60.0547297 84.6578947,60.1074324 84.6842105,60.1074324 C84.5789474,60.1864865 84.4473684,60.2918919 84.2894737,60.4236486 C84.2105263,60.6608108 84.1052632,60.7662162 84,60.9243243 C83.8947368,61.0824324 83.8421053,61.2932432 83.7105263,61.4513514 C83.1578947,62.0574324 82.7631579,62.7689189 82.0526316,63.2432432 C81.7894737,63.4277027 81.5526316,63.6648649 81.3157895,63.902027 C80.8421053,64.35 80.4210526,64.8506757 79.9210526,65.2722973 C79.2631579,65.8256757 78.5789474,66.3263514 77.8684211,66.827027 C77,67.4331081 76.1315789,68.0391892 75.2631579,68.6189189 C74.7894737,68.9351351 74.2631579,69.1722973 73.7631579,69.4621622 C73.2631579,69.752027 72.7894737,70.0155405 72.2894737,70.3054054 C71.9736842,70.5162162 71.6842105,70.8060811 71.3421053,70.9641892 C70.4736842,71.3331081 69.5526316,71.6493243 68.6578947,71.9918919 C67.7894737,72.3608108 67.1578947,72.677027 66.5,72.9141892 C65.8947368,73.125 65.2631579,73.2831081 64.6315789,73.4148649 C64.4210526,73.4675676 64.1842105,73.4148649 63.9473684,73.4412162 C63.5,73.5202703 63.0526316,73.6256757 62.6052632,73.6783784 C61.4473684,73.8364865 60.2894737,73.9418919 59.1315789,74.1 C58.4473684,74.1790541 57.7894737,74.3108108 57.1052632,74.3898649 C56.6315789,74.4162162 56.1315789,74.3635135 55.6578947,74.3635135 C55.3157895,74.3635135 54.9473684,74.4425676 54.6052632,74.3898649 C54.0526316,74.3108108 53.5,74.1790541 52.9473684,74.0736486 C52.8157895,74.0472973 52.6315789,73.9945946 52.5263158,74.0472973 C52.3157895,74.1527027 52.1315789,73.9945946 51.9210526,74.0472973 C51.7894737,74.0736486 51.6578947,73.9682432 51.5263158,73.9682432 C51.4210526,73.9418919 51.2894737,73.9945946 51.1578947,73.9682432 C50.8684211,73.8891892 50.6052632,73.7837838 50.2894737,73.8101351 C49.9736842,73.8364865 49.6578947,73.6783784 49.3157895,73.5993243 C48.8421053,73.4939189 48.3947368,73.3885135 47.9210526,73.2831081 C47.7368421,73.2304054 47.5789474,73.1513514 47.3947368,73.0459459 C46.7105263,73.0459459 46.2631579,73.0195946 45.8421053,72.8614865 C45.4736842,72.7297297 45.1315789,72.5452703 44.7368421,72.597973 C44.6315789,72.6243243 44.5526316,72.5716216 44.4473684,72.5716216 C44.3684211,72.4662162 44.2894737,72.2554054 44.2105263,72.2554054 C43.6842105,72.2817568 43.3684211,71.8337838 42.9210526,71.702027 C42.6842105,71.622973 42.5,71.3594595 42.2631579,71.2804054 C41.6842105,71.0432432 41.2105263,70.5425676 40.5526316,70.4635135 C40.3421053,70.4371622 40.1315789,70.3317568 39.8947368,70.2527027 C39.9736842,70.3581081 40.0263158,70.4371622 40.1052632,70.5162162 C39.3421053,70.1472973 38.6315789,69.7256757 37.9210526,69.3304054 C37.8157895,69.3040541 37.7368421,69.1986486 37.6578947,69.1459459 L36.9473684,68.6716216 C36.5526316,68.7506757 36.3947368,68.5925676 36.2894737,68.5398649 C35.5789474,68.0391892 34.7631579,67.722973 34.0789474,67.1695946 C33.7894737,66.9324324 33.4473684,66.7743243 33.2368421,66.4844595 C32.8684211,66.0364865 32.4210526,65.7202703 31.9210526,65.4567568 C31.5263158,65.2459459 31.1578947,65.0087838 30.7894737,64.7716216 C30.6052632,64.6398649 30.4210526,64.4817568 30.4210526,64.1918919 C30.4210526,64.0074324 30.3421053,63.822973 30.1052632,63.9283784 C30,63.7702703 29.8947368,63.5858108 29.7631579,63.5331081 C29.4473684,63.4013514 29.2368421,63.1641892 29,62.9533784 C28.7631579,62.7425676 28.5789474,62.4527027 28.2894737,62.3472973 C27.7631579,62.1364865 27.4473684,61.6885135 27.1315789,61.3195946 C26.3947368,60.45 25.7368421,59.5013514 25.0526316,58.5790541 C25,58.5 24.8947368,58.4472973 24.8157895,58.3682432 C24.9210526,58.6581081 25.0526316,58.8952703 25.1842105,59.1587838 C24.9210526,59.0533784 24.7368421,58.8689189 24.5789474,58.6844595 C24.5526316,58.7108108 26.3947368,61.7412162 26.3947368,61.7412162 C26.5526316,61.9783784 26.6842105,62.2155405 26.8421053,62.4527027 C26.4473684,62.4790541 26.1842105,62.2682432 26.0526316,62.0310811 C25.8157895,61.6094595 25.5526316,61.3459459 25.0263158,61.3986486 C24.9736842,61.2141892 24.9210526,61.0033784 24.8947368,60.8189189 C24.7894737,60.8189189 24.7105263,60.8189189 24.5263158,60.7925676 C24.8947368,61.3722973 25.2105263,61.872973 25.5526316,62.4527027 C25.4210526,62.3736486 25.3421053,62.3209459 25.2894737,62.2945946 C25.7631579,62.7952703 26.1052632,63.4277027 26.7105263,63.7439189 C26.8421053,64.35 27.5263158,64.6398649 27.6842105,65.2195946 C27.5526316,65.1932432 27.4473684,65.1668919 27.3157895,65.1405405 C27.1052632,64.877027 26.8684211,64.6135135 26.6315789,64.3236486 C26.6842105,64.5081081 26.7631579,64.6662162 26.8684211,64.797973 C27.1842105,65.1932432 27.4736842,65.5885135 27.8421053,65.9310811 C27.9736842,66.0628378 28.1578947,66.1155405 28.1578947,66.3527027 C28.3684211,66.4581081 28.4473684,66.4844595 28.5263158,66.4844595 C28.5789474,66.6425676 28.5,66.8797297 28.8157895,66.827027 C29.0263158,67.2222973 29.2368421,67.2222973 29.5263158,67.0905405 C29.8684211,67.4331081 30.0526316,67.4594595 30.2894737,67.2486486 C30.2894737,67.3804054 30.3157895,67.5121622 30.3157895,67.6175676 C30.4210526,67.5648649 30.3947368,67.4858108 30.3947368,67.3540541 C30.5263158,67.4594595 30.6052632,67.5121622 30.6578947,67.5648649 C30.9210526,67.9337838 31.1578947,68.2763514 31.5263158,68.5662162 C32.0263158,68.9878378 32.4736842,69.4358108 32.9473684,69.8310811 C33.8684211,70.5952703 34.8947368,71.2277027 35.9210526,71.8074324 C37.1842105,72.5189189 38.3947368,73.2831081 39.6842105,73.9682432 C41.2368421,74.7851351 42.8947368,75.3385135 44.6052632,75.7337838 C45.2368421,75.8655405 45.8421053,75.9972973 46.4736842,76.1554054 C47.0263158,76.3135135 47.5789474,76.5506757 48.1315789,76.6824324 C48.9736842,76.8668919 49.8421053,77.025 50.6842105,77.1831081 C50.8684211,77.2094595 51.0526316,77.2358108 51.2631579,77.2621622 C51.5,77.3148649 51.7894737,77.2094595 51.8421053,77.2885135 C51.9736842,77.4993243 52.0789474,77.3939189 52.2368421,77.3675676 C52.4210526,77.3148649 52.6315789,77.3148649 52.8421053,77.3148649 C53.5789474,77.3412162 54.2894737,77.4993243 55.0263158,77.4466216 C55.1842105,77.4466216 55.4210526,77.3148649 55.5526316,77.5783784 C55.7894737,77.472973 55.9210526,77.472973 56.0263158,77.4466216 C56.0526316,77.6837838 56.0263158,77.6837838 55.9736842,77.7101351 C55.9210526,77.7364865 55.8421053,77.7628378 55.7368421,77.8418919 C56.6842105,78.0263514 57.5789474,78.0527027 58.3684211,77.8418919 C59.7368421,77.9472973 60.9210526,77.7891892 62.0526316,77.3939189 C62.1578947,77.5256757 62.2368421,77.7101351 62.3947368,77.4466216 C62.4473684,77.3675676 62.5789474,77.3412162 62.6842105,77.3148649 C62.9210526,77.2621622 63.2105263,77.1567568 63.4210526,77.2358108 C63.6578947,77.3148649 63.7368421,77.1040541 63.9210526,77.1040541 C64.2368421,77.1040541 64.5263158,77.0777027 64.8157895,77.025 C64.9736842,76.9986486 65.1315789,76.9195946 65.3157895,76.8668919 C65.1052632,76.7614865 64.8947368,76.7351351 64.7368421,76.7351351 C65.0526316,76.577027 65.3421053,76.4452703 65.6315789,76.3135135 C65.5789474,76.3925676 65.5263158,76.497973 65.4210526,76.497973 L65.7894737,76.497973 C65.7105263,76.497973 65.6052632,76.7351351 65.4736842,76.8932432 C66.4210526,76.6560811 67.2894737,76.4452703 68.1315789,76.2344595 C67.8421053,75.6810811 68.4473684,75.8655405 68.6578947,75.5493243 C68.3947368,75.6283784 68.1315789,75.7074324 67.8684211,75.7601351 C68.7631579,75.3121622 69.6842105,74.9168919 70.5789474,74.5216216 C70.4473684,74.6797297 70.2894737,74.7587838 70.0526316,74.8905405 C70.2105263,74.9168919 70.3157895,74.9168919 70.3947368,74.9432432 C70.8157895,75.075 70.7105263,74.6797297 70.8421053,74.4425676 C71.3421053,74.4425676 71.5526316,74.3635135 71.7894737,74.2844595 C72.0526316,74.2054054 72.3157895,74.1263514 72.5789474,74.0209459 C73,73.8364865 73.3947368,73.5993243 73.8157895,73.3885135 C73.8947368,73.3621622 74.0263158,73.3885135 74.1315789,73.3885135 C74.4210526,73.2040541 74.5263158,73.0459459 74.6052632,73.0722973 C74.9736842,73.125 75.2368421,72.9932432 75.3421053,72.6506757 C75.5263158,72.5189189 75.6578947,72.4135135 75.7894737,72.3344595 C76.3684211,72.0182432 76.9210526,71.702027 77.5,71.3858108 C77.7105263,71.3858108 77.8157895,71.3858108 77.8684211,71.3594595 C78.2105263,71.2013514 78.5263158,71.0168919 78.8421053,70.8324324 C78.7631579,70.8060811 78.5789474,70.7006757 78.5789474,70.7006757 C78.8421053,70.647973 78.9210526,70.6216216 79.0789474,70.5689189 C79.7105263,69.8310811 80.5789474,69.3304054 81.2368421,68.7506757 C81.5263158,68.7243243 81.5263158,68.6452703 81.5263158,68.5925676 C81.6315789,68.4608108 81.7368421,68.3027027 81.8684211,68.1972973 C82.4473684,67.6702703 83.0789474,67.2222973 83.6052632,66.6689189 C84.3684211,65.9047297 85.1052632,65.1141892 85.7894737,64.2972973 C86.4210526,63.5594595 87.0526316,62.8216216 87.5789474,62.0047297 C88.3157895,60.8716216 88.9473684,59.7121622 89.6052632,58.5263514 C90.0789474,57.6831081 90.5,56.8398649 90.9736842,55.9966216 C91.0263158,55.9175676 91.1315789,55.8121622 91.2105263,55.8121622 C91.9210526,55.7331081 92.6315789,55.6804054 93.3157895,55.6013514 C93.4736842,55.575 93.6578947,55.4695946 93.8157895,55.3905405 C93.7368421,55.2587838 93.6842105,55.1006757 93.6052632,54.9689189 C93.5,54.8108108 93.3421053,54.6790541 93.2368421,54.5209459 C93.1315789,54.3891892 93.0526316,54.2310811 92.9736842,54.072973 C92.8947368,53.9412162 92.8157895,53.8358108 92.7368421,53.7040541 C92.5789474,53.4141892 92.4210526,53.1243243 92.2894737,52.8081081 C92.2631579,52.7290541 92.2105263,52.5972973 92.2368421,52.5182432 C92.7105263,51.4905405 92.8947368,50.3837838 93.3421053,49.3560811 C93.7894737,48.302027 93.9210526,47.1162162 94.1315789,45.9831081 C94.3157895,44.9027027 94.4210526,43.8222973 94.5526316,42.7418919 C94.6315789,41.9777027 94.7368421,41.2398649 94.7631579,40.4756757 C94.9210526,39.2635135 94.8684211,38.1304054 94.8421053,36.9972973 C94.8157895,35.9959459 94.7631579,34.9682432 94.7105263,33.9668919 Z M28.6842105,66.4054054 C28.5,66.1945946 28.3421053,65.9574324 28.1578947,65.7466216 L28.2368421,65.6675676 C28.5263158,65.9837838 28.8157895,66.3 29.1052632,66.6425676 C28.9473684,66.5635135 28.7631579,66.5108108 28.6842105,66.4054054 L28.6842105,66.4054054 Z M29.1052632,66.6425676 C29.1842105,66.6162162 29.2631579,66.6162162 29.3421053,66.5898649 C29.4210526,66.7216216 29.4736842,66.8797297 29.5526316,67.0378378 C29.1842105,67.0114865 29,66.8533784 29.1052632,66.6425676 L29.1052632,66.6425676 Z M56.4736842,77.5256757 L56.4736842,77.4466216 C56.9736842,77.3939189 57.4473684,77.3412162 57.9473684,77.2885135 L57.9473684,77.3675676 C57.4473684,77.4466216 56.9736842,77.4993243 56.4736842,77.5256757 L56.4736842,77.5256757 Z M63.1052632,76.8405405 C62.7368421,76.9195946 62.3421053,76.9722973 61.9736842,77.025 C61.8421053,77.0513514 61.6842105,77.1831081 61.6315789,76.9459459 C61.5789474,76.9722973 61.5263158,76.9722973 61.4736842,76.9986486 C61.6052632,77.3939189 61.9210526,77.0777027 62.1842105,77.2358108 C61.6052632,77.3148649 61.0526316,77.3675676 60.5,77.4466216 L60.5,77.3939189 C60.6578947,77.3675676 60.8421053,77.3412162 61,77.3148649 L61,77.2358108 C60.7368421,77.2094595 60.4736842,77.1831081 60.2105263,77.1831081 C60.1315789,77.1831081 60.0263158,77.2885135 59.9473684,77.3148649 C59.8421053,77.3412162 59.7368421,77.3675676 59.6052632,77.3675676 C59.1578947,77.3939189 58.7105263,77.3939189 58.2894737,77.4202703 C58.2631579,77.4202703 58.2105263,77.3939189 58.1842105,77.3939189 L58.1842105,77.3148649 C59.9473684,77.0777027 61.6842105,76.8405405 63.4473684,76.6033784 C63.4736842,76.6560811 63.4736842,76.7087838 63.5,76.7614865 C63.3421053,76.7614865 63.2368421,76.8141892 63.1052632,76.8405405 L63.1052632,76.8405405 Z M63.5,76.577027 C64.1052632,76.497973 64.6578947,76.4452703 65.2368421,76.3662162 C64.0263158,76.7087838 63.6315789,76.7614865 63.5,76.577027 L63.5,76.577027 Z M40.5789474,23.3736486 C41.4210526,22.2141892 42.2894737,21.0547297 43.1315789,19.8689189 C43.3947368,19.5263514 43.6052632,19.1574324 43.8684211,18.8148649 C43.9473684,18.7094595 44.0526316,18.6567568 44.1842105,18.5513514 L44.1578947,18.4986486 C44.2631579,18.3668919 44.3684211,18.2614865 44.4210526,18.1560811 C44.5526316,17.9452703 44.6315789,17.7081081 44.7368421,17.4709459 C44.7631579,17.4182432 44.8421053,17.3655405 44.8421053,17.3655405 C45.2105263,17.55 45.2105263,17.1547297 45.3421053,17.022973 C45.5789474,16.7594595 45.8157895,16.4695946 46.0263158,16.2060811 C46.1842105,15.9952703 46.3421053,15.8108108 46.4736842,15.5736486 C46.5,15.4945946 46.4210526,15.3628378 46.3947368,15.2574324 L46.3157895,15.2574324 C46.3947368,15.2047297 46.4736842,15.1256757 46.5526316,15.072973 C46.5789474,15.072973 46.5789474,15.072973 46.6052632,15.0466216 C46.7631579,14.8094595 46.9210526,14.5722973 47.0789474,14.3614865 C47.3947368,13.9398649 47.7368421,13.5182432 48.1052632,13.1493243 C48.0526316,13.2810811 48,13.4128378 47.9473684,13.5182432 C47.9736842,13.5182432 47.9736842,13.5445946 48,13.5445946 C48.3157895,13.122973 48.6578947,12.7277027 48.9736842,12.3060811 C48.9473684,12.2797297 48.9210526,12.2533784 48.8947368,12.2533784 C48.7631579,12.3851351 48.6578947,12.5168919 48.5263158,12.6486486 C48.5,12.6222973 48.4736842,12.5959459 48.4473684,12.5959459 C48.7105263,12.2533784 48.9736842,11.9108108 49.2368421,11.5155405 C49.2894737,11.5945946 49.3421053,11.7 49.4473684,11.9108108 C49.5526316,11.6472973 49.6578947,11.4628378 49.7368421,11.2783784 C49.6578947,11.3574324 49.5526316,11.4364865 49.4736842,11.5155405 L49.3947368,11.4364865 L49.8684211,10.725 C50.3684211,10.0135135 50.8684211,9.27567568 51.3684211,8.56418919 C51.5526316,8.30067568 51.7894737,8.08986486 51.9473684,7.82635135 C52.4473684,6.825 53.2368421,6.03445946 53.8421053,5.11216216 C53.9736842,4.9277027 54.1578947,4.76959459 54.3157895,4.61148649 C54.4473684,4.45337838 54.5526316,4.50608108 54.6578947,4.63783784 C55.3684211,5.53378378 56.0789474,6.45608108 56.7894737,7.35202703 C57.3157895,8.01081081 57.8421053,8.64324324 58.3421053,9.32837838 C58.9473684,10.1716216 59.5263158,11.0148649 60.1315789,11.8581081 C60.8157895,12.8331081 61.5,13.8081081 62.1578947,14.8094595 C63.1578947,16.2851351 64.1052632,17.7608108 65.1052632,19.2364865 C65.8421053,20.3168919 66.5789474,21.3709459 67.2894737,22.4513514 L65.9473684,22.4513514 C64.7105263,22.425 63.4473684,22.3195946 62.2105263,22.3722973 C60.5263158,22.4513514 58.8157895,22.6358108 57.1315789,22.7675676 C55,22.952027 52.8421053,22.9783784 50.7105263,22.9783784 C49.9473684,22.9783784 49.1842105,23.0837838 48.4210526,23.1364865 C47.5,23.1891892 46.6052632,23.2418919 45.6842105,23.2682432 C44.6052632,23.3209459 43.5526316,23.3472973 42.4736842,23.3736486 C41.8684211,23.4 41.2368421,23.3736486 40.5789474,23.3736486 L40.5789474,23.3736486 Z M70.7631579,35.4952703 L70.7631579,35.7324324 C70.7368421,35.7324324 70.7105263,35.7587838 70.6578947,35.7587838 C70.5526316,35.3898649 70.4473684,34.9945946 70.3157895,34.6256757 C70.0526316,33.8614865 69.7631579,33.0972973 69.2894737,32.4121622 C68.7631579,31.6743243 68.2894737,30.9101351 67.7631579,30.1459459 C67.6315789,29.9614865 67.4473684,29.8033784 67.2894737,29.6452703 C66.7368421,29.0391892 66.1842105,28.4067568 65.4736842,27.9587838 C64.4210526,27.3 63.3421053,26.7466216 62.1842105,26.2722973 C61.8684211,26.1405405 61.5789474,25.9824324 61.2631579,25.797973 L61.8947368,25.797973 L66.3947368,25.7189189 C67.3684211,25.6925676 68.3157895,25.6925676 69.2894737,25.6398649 C69.5263158,25.6398649 69.6578947,25.7189189 69.7894737,25.9297297 C70.0263158,26.325 70.2631579,26.7202703 70.5263158,27.1155405 C70.5526316,27.1682432 70.6052632,27.2472973 70.6052632,27.3263514 C70.6052632,27.9060811 70.6052632,28.5121622 70.6315789,29.0918919 C70.6578947,29.697973 70.7105263,30.2777027 70.7368421,30.8837838 C70.7368421,31.4898649 70.6842105,32.1222973 70.7105263,32.7547297 C70.7368421,33.6506757 70.7631579,34.572973 70.7631579,35.4952703 L70.7631579,35.4952703 Z M42.4473684,26.6675676 C43.6842105,26.6148649 44.8684211,26.5358108 46.0789474,26.4831081 C47.0263158,26.4304054 48,26.4040541 48.9473684,26.3513514 C49.3421053,26.325 49.7105263,26.2986486 50.1052632,26.3513514 C49.6842105,26.5621622 49.2631579,26.772973 48.8947368,27.0364865 C48.4210526,27.3527027 47.9736842,27.7743243 47.5,28.1168919 C47.0263158,28.4594595 46.6052632,28.8810811 46.2105263,29.3290541 C45.7105263,29.9351351 45.1578947,30.4621622 44.6315789,31.0418919 C44.2631579,31.4635135 43.8421053,31.8587838 43.5263158,32.3067568 C43.0789474,32.8864865 42.6842105,33.5189189 42.2631579,34.1777027 C42.3947368,31.6743243 42.5526316,29.1972973 42.4473684,26.6675676 L42.4473684,26.6675676 Z M59.6315789,52.0175676 C58.7894737,52.2283784 57.9210526,52.4655405 57.0526316,52.5709459 C56.3157895,52.6763514 55.5526316,52.65 54.7894737,52.65 C54.1052632,52.65 53.4473684,52.6236486 52.7631579,52.5709459 C52,52.4918919 51.2368421,52.4128378 50.5,52.0702703 C49.8684211,51.7804054 49.2105263,51.5168919 48.5789474,51.2006757 C47.9473684,50.8844595 47.3157895,50.5155405 46.8421053,49.9358108 C46.5,49.5141892 46.0263158,49.1716216 45.6052632,48.8027027 C45.6842105,49.1189189 45.8684211,49.3824324 46.1578947,49.5668919 C46.0263158,49.725 45.8421053,49.6459459 45.5789474,49.2243243 C45.5,49.277027 45.4210526,49.3033784 45.3684211,49.3297297 C45.4473684,49.1452703 45.5263158,48.9608108 45.6052632,48.8027027 C45.5,48.5918919 45.3684211,48.3547297 45.2631579,48.1439189 C45.0526316,47.8013514 44.8421053,47.4324324 44.6578947,47.0898649 C44.6052632,47.0108108 44.6052632,46.9317568 44.5526316,46.8527027 C44.4210526,46.6945946 44.2894737,46.5364865 44.1842105,46.3783784 C43.9736842,46.0621622 43.7894737,45.7195946 43.5263158,45.4033784 C43.5263158,45.4824324 43.5526316,45.5614865 43.5526316,45.6668919 C43.5263158,45.6668919 43.5,45.6932432 43.5,45.6932432 L42.9473684,44.3493243 C42.9210526,44.3493243 42.9210526,44.3493243 42.8947368,44.3756757 L43.3684211,46.1148649 C43.3421053,46.1148649 43.3157895,46.1412162 43.2894737,46.1412162 C43.2105263,46.0358108 43.1315789,45.9304054 43.0789474,45.7986486 C43.0263158,45.5878378 42.8684211,45.5878378 42.7368421,45.6668919 C42.6578947,45.7195946 42.6052632,45.9040541 42.6315789,45.9831081 C42.8157895,46.4310811 43.0263158,46.8790541 43.2368421,47.327027 C43.2894737,47.4851351 43.3421053,47.6168919 43.4210526,47.775 C43.4473684,47.8277027 43.5263158,47.8804054 43.5263158,47.9594595 C43.6315789,48.1702703 43.7105263,48.3810811 43.8421053,48.5655405 C44.0789474,48.8817568 44.3421053,49.197973 44.5789474,49.5141892 C44.8157895,49.8304054 45.0263158,50.172973 45.2368421,50.4891892 C45.2631579,50.5418919 45.3421053,50.5418919 45.3684211,50.5682432 C45.5,50.9635135 45.9473684,51.2533784 46.2631579,51.0952703 C46.3421053,51.7013514 47,51.9121622 47.2631579,52.4918919 C46.9473684,52.3601351 46.7105263,52.2547297 46.5,52.1493243 C46.4736842,52.1756757 46.4736842,52.202027 46.4473684,52.2547297 C46.7631579,52.4128378 47.0789474,52.5709459 47.3684211,52.7554054 C47.6315789,52.9135135 47.8947368,53.0716216 48.1315789,53.2560811 C48.4473684,53.5459459 48.8157895,53.7040541 49.2631579,53.8094595 C49.2368421,53.7304054 49.2105263,53.7040541 49.2105263,53.7040541 C49.9473684,54.0466216 50.7105263,54.4155405 51.2894737,54.7054054 C48.5526316,54.7581081 45.6315789,54.8108108 42.6052632,54.8635135 C42.6052632,54.3628378 42.5789474,53.8885135 42.5789474,53.3878378 C42.5789474,53.177027 42.6315789,52.9925676 42.6052632,52.7817568 C42.5263158,51.5695946 42.5263158,50.3574324 42.3684211,49.1716216 C42.2105263,47.9067568 42.2105263,46.6682432 42.2368421,45.4033784 C42.2631579,44.7182432 42.2105263,44.0067568 42.1842105,43.3216216 C42.1842105,42.3993243 42.1842105,41.5033784 42.2105263,40.5810811 C42.2105263,40.4493243 42.2631579,40.3439189 42.3157895,40.2121622 L42.3947368,40.2121622 C42.4210526,40.2648649 42.3947368,40.3439189 42.4473684,40.3702703 C42.5263158,40.4493243 42.6578947,40.5810811 42.7105263,40.5547297 C42.8684211,40.4493243 43.1052632,40.3439189 43.1578947,40.1858108 C43.2894737,39.8695946 43.3421053,39.527027 43.3421053,39.2108108 C43.3421053,38.9736486 43.4473684,38.8155405 43.5526316,38.6574324 C43.6052632,38.5783784 43.6315789,38.4993243 43.6842105,38.3939189 C43.5789474,38.3148649 43.4736842,38.2621622 43.3421053,38.1567568 C43.4473684,37.8668919 43.4210526,37.5243243 43.8157895,37.3662162 C43.8684211,37.3398649 43.8684211,37.2081081 43.8947368,37.1290541 C43.9210526,36.9182432 43.9473684,36.6810811 43.9736842,36.4702703 C44.0263158,36.5493243 44.0526316,36.5756757 44.1052632,36.6283784 C44.1315789,36.5756757 44.1578947,36.5493243 44.1578947,36.5493243 C44.1578947,36.4439189 44.1315789,36.2331081 44.1578947,36.2331081 C44.4736842,36.1804054 44.3421053,35.8378378 44.5,35.6797297 C44.5263158,35.6533784 44.4736842,35.5743243 44.4736842,35.5216216 C44.4736842,35.4689189 44.4736842,35.3898649 44.5,35.3898649 C44.8684211,35.3108108 44.8157895,34.9155405 45.0526316,34.7310811 C45.1315789,34.6783784 45.1578947,34.5993243 45.2631579,34.4675676 C45.4736842,34.8364865 45.1052632,35.0209459 45.0789474,35.2844595 C45.5263158,35.0209459 45.6578947,34.3885135 45.3947368,34.2040541 C45.5,34.125 45.6052632,34.0195946 45.6842105,33.9141892 C45.9736842,33.597973 46.2894737,33.3081081 46.5526316,32.9918919 C46.7368421,32.7547297 46.8421053,32.4648649 47.0263158,32.2277027 C47.1315789,32.0959459 47.3421053,31.9905405 47.5,31.9114865 C47.9736842,31.647973 48.4210526,31.3581081 48.7105263,30.9101351 C48.7631579,30.8574324 48.8421053,30.8047297 48.9210526,30.752027 C49,30.6993243 49.1578947,30.6993243 49.1842105,30.6202703 C49.2105263,30.5675676 49.1315789,30.4358108 49.0789474,30.3567568 C49.1842105,30.3040541 49.2894737,30.1986486 49.5,30.0932432 C49.4210526,30.2513514 49.3947368,30.3567568 49.3421053,30.4621622 L49.4736842,30.5939189 C49.7105263,30.4094595 50.0789474,30.1986486 50.3157895,30.0405405 C50.3157895,30.0141892 50.1842105,29.9087838 50.1842105,29.9087838 C50.0263158,29.9878378 49.7894737,30.1195946 49.5526316,30.225 C49.6052632,30.1459459 49.6052632,30.0932432 49.6315789,30.0668919 C50,29.8297297 50.3684211,29.5925676 50.7631579,29.4081081 C51.6842105,28.9864865 52.6052632,28.5648649 53.5263158,28.1695946 C53.6842105,28.0905405 53.8947368,28.1432432 54.0789474,28.1432432 C54.1578947,28.1432432 54.2105263,28.1432432 54.2894737,28.1168919 C54.7105263,27.9851351 55.1315789,27.8533784 55.5526316,27.747973 C55.7368421,27.6952703 55.9473684,27.6689189 56.1315789,27.6689189 C56.9210526,27.6952703 57.7105263,27.6952703 58.5,27.747973 C58.8421053,27.7743243 59.1578947,27.8533784 59.4736842,27.9587838 C59.8684211,28.0905405 60.2894737,28.275 60.6578947,28.4594595 C61.1052632,28.6966216 61.5263158,28.9601351 61.9473684,29.25 C62.7105263,29.7506757 63.4210526,30.3040541 64.1842105,30.752027 C64.9210526,31.2 65.5,31.8060811 65.9736842,32.4912162 C66.5526316,33.3081081 67.2105263,34.0459459 67.4736842,35.0472973 L67.8684211,36.7864865 C67.9473684,37.1027027 68.1315789,37.4189189 68.0526316,37.7878378 C67.9210526,38.4466216 67.8157895,39.1317568 67.7105263,39.7905405 C67.6578947,40.0540541 67.6052632,40.3175676 67.6315789,40.5810811 C67.6842105,41.397973 67.3684211,42.1094595 67.0526316,42.8472973 C66.9473684,43.0844595 66.7894737,43.3216216 66.6578947,43.5851351 C66.6842105,43.6114865 66.8421053,43.6905405 66.8684211,43.6905405 L67.1052632,43.2162162 C67.1315789,43.2162162 67.1315789,43.2162162 67.1578947,43.2425676 C67.0263158,43.6114865 66.9210526,44.0067568 66.7894737,44.3756757 C66.4736842,45.1925676 66.1578947,46.0358108 65.7631579,46.8263514 C65.5526316,47.2743243 65.1842105,47.6432432 64.9210526,48.0648649 C64.6578947,48.4337838 64.4473684,48.8290541 64.1842105,49.1716216 C63.9473684,49.4614865 63.7105263,49.7513514 63.3947368,49.9621622 C62.6842105,50.4891892 61.9473684,51.0162162 61.1842105,51.4378378 C60.7105263,51.7277027 60.1578947,51.8858108 59.6315789,52.0175676 L59.6315789,52.0175676 Z M45.6052632,50.6209459 L45.5789474,50.6472973 C45.5263158,50.6209459 45.4473684,50.5945946 45.3947368,50.5418919 L44.7631579,49.5932432 C44.7105263,49.5141892 44.6842105,49.4351351 44.7105263,49.3297297 C45,49.7777027 45.2894737,50.1993243 45.6052632,50.6209459 L45.6052632,50.6209459 Z M61.9736842,54.2310811 C63.1578947,53.7304054 64.1315789,53.0189189 65.0263158,52.202027 C65.1578947,52.0702703 65.2894737,51.9385135 65.4473684,51.8331081 C66.5526316,51.147973 67.3684211,50.1993243 68.1052632,49.1452703 C68.9473684,47.9331081 69.5,46.5628378 70.1842105,45.2716216 C70.2368421,45.1662162 70.2894737,45.0608108 70.3421053,44.9817568 C70.2894737,47.9858108 70.6315789,50.9371622 71.0263158,53.9148649 C68.0526316,54.0202703 65.0263158,54.1256757 61.9736842,54.2310811 L61.9736842,54.2310811 Z M88.6578947,53.4405405 C88.6315789,53.4932432 88.5789474,53.5459459 88.5526316,53.5986486 C88.5263158,53.5459459 88.5263158,53.4668919 88.5,53.3614865 C88.3421053,53.7831081 88,53.5722973 87.7631579,53.5722973 C86.3421053,53.5986486 84.8947368,53.5986486 83.4736842,53.5986486 C82.1052632,53.5986486 80.7105263,53.5986486 79.3421053,53.625 C78.8947368,53.625 78.4210526,53.7304054 77.9736842,53.7567568 C76.8947368,53.8094595 75.8157895,53.8358108 74.7368421,53.8621622 C74.6578947,53.8621622 74.5789474,53.7304054 74.4473684,53.625 C74.4210526,53.6777027 74.3684211,53.7567568 74.2894737,53.8621622 C74.2631579,53.8094595 74.2105263,53.7567568 74.1578947,53.6777027 C74.1315789,53.7567568 74.1052632,53.8358108 74.0789474,53.8885135 L74,53.8885135 C73.9473684,53.5195946 73.8421053,53.177027 73.8421053,52.8081081 C73.8421053,52.0175676 73.9210526,51.227027 73.9473684,50.4364865 C73.9736842,50.0675676 73.9473684,49.725 73.9473684,49.3824324 C74.0526316,49.4614865 74.1315789,49.5141892 74.2368421,49.5932432 C74.2894737,49.4878378 74.3421053,49.4087838 74.3947368,49.3297297 C74.3947368,49.3297297 74.3421053,49.3033784 74.2894737,49.2506757 C74.3421053,49.2243243 74.3947368,49.1716216 74.3947368,49.1452703 C74.4210526,49.0662162 74.4736842,48.9871622 74.4736842,48.9344595 C74.4736842,48.75 74.4210526,48.5918919 74.3947368,48.4337838 C74.4210526,48.4337838 74.4473684,48.4337838 74.4736842,48.4074324 L74.6315789,49.197973 L74.7105263,49.197973 C74.6052632,49.0135135 74.9473684,48.8554054 74.6578947,48.6445946 C74.6315789,48.6182432 74.6842105,48.4601351 74.6842105,48.3810811 C74.6052632,48.222973 74.5526316,48.0648649 74.4736842,47.8540541 C74.5,47.8277027 74.5789474,47.8013514 74.6578947,47.775 C74.5526316,47.7222973 74.4736842,47.6695946 74.3947368,47.6432432 C74.6578947,47.4060811 74.6578947,47.2743243 74.4210526,47.0108108 C74.4736842,46.9844595 74.5263158,46.9844595 74.5263158,46.9581081 C74.5263158,46.7209459 74.5263158,46.4837838 74.4736842,46.2466216 C74.4210526,45.9831081 74.5526316,45.6668919 74.1578947,45.5087838 C74.1842105,45.5878378 74.2105263,45.6405405 74.2631579,45.7195946 C74.2631579,45.7195946 74.1842105,45.7459459 74.1052632,45.7986486 C73.7631579,45.4824324 73.9736842,45.0608108 73.8947368,44.5864865 C74.0789474,44.6391892 74.2105263,44.6918919 74.3421053,44.7445946 C74.2894737,44.5601351 74.1578947,44.3493243 74.0789474,44.1121622 L73.9736842,44.1121622 L73.9736842,42.372973 C73.9736842,42.3993243 74.1578947,42.3993243 74.2631579,42.4256757 C74.2631579,42.3993243 74.2894737,42.372973 74.2894737,42.3466216 C74.2105263,42.2412162 74.1052632,42.1358108 74,42.0040541 L74.0526316,41.9513514 C73.8421053,41.6878378 73.9473684,41.3189189 73.9473684,41.2398649 L73.9473684,39.3952703 C74.2105263,39.6587838 73.8157895,40.0013514 74.2105263,40.1594595 L74.2105263,39.8959459 L74.1842105,39.8959459 C74.1578947,39.5006757 74.1578947,39.1054054 74.1315789,38.7101351 L74.0789474,38.7101351 C74.0526316,38.7628378 74.0526316,38.7891892 74.0263158,38.8418919 L73.9736842,38.8418919 C74.0263158,36.7601351 74.0789474,34.6783784 74.1315789,32.5439189 C74.3947368,32.8864865 74.6842105,33.2027027 74.8684211,33.5452703 C75.4736842,34.652027 76.2631579,35.6006757 77,36.602027 C77.6315789,37.4716216 78.2105263,38.4202703 78.7894737,39.3162162 C79.5,40.3966216 80.1842105,41.477027 80.8947368,42.5574324 C81.4210526,43.3743243 81.9736842,44.1912162 82.5263158,44.9817568 C83.0263158,45.6932432 83.5526316,46.3783784 84.0789474,47.0635135 C84.5263158,47.6695946 85,48.2756757 85.4473684,48.8817568 C85.9736842,49.6195946 86.5,50.3574324 87.0263158,51.0689189 C87.2894737,51.4378378 87.5789474,51.8067568 87.8684211,52.1756757 C88.0263158,52.3864865 88.2631579,52.5445946 88.4210526,52.6763514 C88.3947368,52.6763514 88.3684211,52.6763514 88.3157895,52.65 C88.3947368,52.7554054 88.4473684,52.8344595 88.5,52.8871622 C88.7894737,53.0452703 88.8157895,53.2033784 88.6578947,53.4405405 L88.6578947,53.4405405 Z M90,46.8527027 L90,46.6682432 C90,46.7209459 90.0263158,46.8 90,46.8527027 L90,46.8527027 Z M90.8947368,35.2317568 C90.8684211,35.2317568 90.7105263,35.0736486 90.6842105,35.0472973 C90.6578947,35.1263514 90.6842105,35.2054054 90.6315789,35.3108108 C90.6052632,35.2317568 90.4210526,35.2581081 90.4210526,35.1790541 C90.3947368,35.547973 90.5789474,35.9168919 90.5526316,36.2858108 C90.6315789,36.2331081 90.9473684,36.2067568 91.0263158,36.1277027 C91.0526316,36.1540541 91.1052632,36.1804054 91.1315789,36.1804054 C90.6052632,36.5756757 90.7368421,36.9709459 90.9736842,37.4189189 C91.0263158,37.5243243 91.1842105,37.7351351 91.0263158,37.9459459 C90.9736842,37.9986486 91.0526316,38.1567568 91.0789474,38.2885135 L91.1578947,38.2885135 L91.1578947,38.3412162 L90.9210526,38.4202703 C90.8684211,38.3412162 90.5526316,38.1831081 90.5526316,38.0513514 L90.5526316,39.3952703 C90.8157895,39.4743243 90.8157895,39.8432432 90.9210526,40.0277027 C90.9736842,39.9486486 91,39.8959459 91.0263158,39.8168919 L91.0526316,39.8432432 C91.0263158,40.0013514 91,40.1594595 90.9473684,40.3175676 C90.8947368,40.5547297 90.8421053,40.7655405 90.8157895,41.0027027 C90.8157895,41.0290541 90.8684211,41.0817568 90.8684211,41.1081081 C90.5789474,41.7668919 90.7368421,42.5047297 90.6315789,43.1898649 C90.5526316,43.6905405 90.6315789,44.2175676 90.5789474,44.7445946 C90.5263158,45.1925676 90.4210526,45.6668919 90.3157895,46.1148649 C90.2894737,46.1939189 90.2368421,46.2202703 90.1052632,46.272973 C90.1578947,45.9567568 90.1315789,45.7459459 90.0789474,45.4560811 C90.0526316,45.4560811 89.7105263,45.2716216 89.6842105,45.2716216 C89.6842105,45.6405405 89.8947368,46.1412162 89.9736842,46.5628378 C89.8947368,46.5364865 89.5789474,46.352027 89.5526316,46.352027 C89.5,46.6682432 89.5,47.0898649 89.4736842,47.4324324 C89.4473684,47.6959459 89.2105263,47.9331081 89.1842105,48.222973 C89.1842105,48.3810811 89.3684211,48.4864865 89.3421053,48.75 L89.5526316,48.75 C89.5526316,48.222973 89.7894737,47.7486486 89.7894737,47.1952703 L89.8684211,47.1952703 C89.8947368,47.247973 89.9736842,47.3006757 89.9473684,47.327027 C89.8947368,47.6168919 89.7894737,47.9331081 89.8157895,48.222973 C89.8157895,48.3810811 89.9473684,48.5391892 89.8947368,48.7236486 C89.8421053,48.8817568 89.8157895,49.0398649 89.7894737,49.277027 C89.7631579,49.1452703 89.7368421,49.0925676 89.7368421,49.0135135 C89.7105263,49.0135135 89.4736842,48.9871622 89.4473684,48.9871622 C89.4210526,49.1452703 89.6315789,49.3033784 89.6052632,49.4351351 C89.5789474,49.4614865 89.5526316,49.4614865 89.5,49.4878378 L88.6315789,48.222973 C87.9473684,47.2216216 87.2631579,46.2202703 86.5789474,45.1925676 C86.3947368,44.9290541 86.2368421,44.6655405 86.1052632,44.402027 C85.2894737,43.0054054 84.3947368,41.6614865 83.3947368,40.3702703 C82.6315789,39.3952703 82.0263158,38.3412162 81.3157895,37.3135135 C80.6578947,36.3385135 80,35.3898649 79.3421053,34.4148649 C79.1052632,34.0986486 78.8157895,33.8087838 78.6052632,33.4662162 C77.9210526,32.3858108 77.3157895,31.2790541 76.6315789,30.1986486 C76.0526316,29.3027027 75.4210526,28.4331081 74.8157895,27.5635135 C74.6052632,27.2736486 74.3947368,26.9574324 74.1842105,26.6412162 C74.1578947,26.5885135 74.1315789,26.5358108 74.1315789,26.4567568 C74.0789474,25.877027 74.0263158,25.2972973 74,24.7439189 C74,24.2168919 74.0526316,23.6898649 74.0526316,23.1364865 L74.0526316,22.6621622 C74.0526316,22.5304054 74.0789474,22.425 74.0789474,22.2932432 C74.1052632,22.2668919 74.1315789,22.2141892 74.1578947,22.1878378 C73.3947368,22.1878378 72.6052632,22.1614865 71.8421053,22.1878378 C71.3421053,22.2141892 71.0789474,22.0033784 70.7368421,21.6344595 C69.7368421,20.5013514 69,19.2101351 68.1315789,17.997973 C67.3157895,16.8385135 66.4736842,15.7054054 65.6315789,14.5722973 C64.9473684,13.65 64.2631579,12.7540541 63.5789474,11.8317568 C62.8157895,10.7777027 62.0789474,9.72364865 61.2894737,8.66959459 C60.3421053,7.40472973 59.3684211,6.13986486 58.3947368,4.875 C57.9473684,4.29527027 57.4473684,3.74189189 56.9473684,3.13581081 C57.2894737,3.18851351 57.6052632,3.24121622 57.9210526,3.26756757 L59.1842105,3.34662162 C60.1315789,3.42567568 61.0789474,3.47837838 62.0263158,3.61013514 C62.8157895,3.71554054 63.6052632,3.87364865 64.4210526,4.00540541 C66.1578947,4.29527027 67.8684211,4.76959459 69.5263158,5.32297297 C70.5,5.63918919 71.4473684,6.06081081 72.3947368,6.45608108 C74.5263158,7.32567568 76.5526316,8.37972973 78.5526316,9.48648649 C79.1842105,9.82905405 79.5526316,10.3824324 80.0263158,10.8831081 C80.7105263,11.5945946 81.3947368,12.3060811 82.0526316,13.0439189 C82.8157895,13.9135135 83.5263158,14.8094595 84.2631579,15.7054054 C84.9210526,16.4959459 85.6052632,17.2864865 86.2631579,18.077027 C86.4736842,18.3141892 86.6315789,18.6040541 86.8157895,18.8675676 C87.2368421,19.5 87.7105263,20.1060811 88.0789474,20.7912162 C88.3421053,21.2918919 88.5,21.8716216 88.6842105,22.425 C88.9473684,23.2418919 89.2105263,24.0324324 89.4736842,24.8493243 C89.6578947,25.4554054 89.8157895,26.0878378 89.9473684,26.7202703 C90.0526316,27.1418919 90.0263158,27.5898649 90.1578947,28.0114865 C90.3157895,28.5648649 90.1578947,29.1709459 90.3157895,29.7243243 C90.3421053,29.777027 90.3684211,29.8560811 90.3947368,29.9087838 C90.5,30.0141892 90.5789474,30.1195946 90.4210526,30.2777027 C90.3947368,30.3040541 90.3947368,30.4094595 90.4210526,30.4885135 C90.4736842,30.4358108 90.5,30.3831081 90.5526316,30.3040541 C90.5526316,30.3567568 90.5789474,30.3831081 90.5789474,30.4094595 C90.5789474,30.5148649 90.5526316,30.6202703 90.5789474,30.7256757 C90.5789474,30.7783784 90.6315789,30.8574324 90.6578947,30.9101351 C90.7105263,30.8574324 90.7631579,30.8310811 90.8684211,30.752027 C91.1052632,31.647973 91.1315789,32.5439189 91.1315789,33.4662162 C91.1315789,34.3358108 91.2894737,35.2054054 90.9210526,36.0486486 C91,35.7587838 90.8157895,35.4952703 90.8947368,35.2317568 L90.8947368,35.2317568 Z" id="Shape"></path>
                    <path d="M74.0789474,45.4824324 C74.1052632,45.4824324 74.1315789,45.5087838 74.1315789,45.5087838 L74.1052632,45.4824324 C74.1052632,45.4560811 74.1052632,45.4560811 74.0789474,45.4824324 L74.0789474,45.4824324 Z M78.2368421,71.5175676 C77.9473684,71.7283784 77.6578947,71.9128378 77.2894737,71.9918919 C77.2631579,71.9655405 77.2631579,71.9391892 77.2368421,71.9128378 C77.5263158,71.7283784 77.8421053,71.5439189 78.1315789,71.3594595 C78.1578947,71.4121622 78.2105263,71.4648649 78.2368421,71.5175676 L78.2368421,71.5175676 Z M28.8947368,35.8114865 C29.1842105,35.4425676 29.4736842,35.0736486 29.7894737,34.7047297 C29.8157895,34.7310811 30.0263158,34.7837838 30.0526316,34.8101351 C29.7631579,35.1790541 29.3684211,35.6797297 29.0789474,36.075 C29.0263158,36.0222973 28.9473684,35.8378378 28.8947368,35.8114865 L28.8947368,35.8114865 Z M21.4210526,48.7236486 C21.2105263,48.2756757 21,47.8013514 20.7894737,47.3533784 C20.8157895,47.327027 21,47.247973 21.0263158,47.247973 C21.3157895,47.6695946 21.4473684,48.1702703 21.6578947,48.6182432 C21.6578947,48.6182432 21.4473684,48.7236486 21.4210526,48.7236486 L21.4210526,48.7236486 Z M28.1315789,36.075 C27.9736842,36.3121622 27.8157895,36.5756757 27.6578947,36.8128378 C27.6315789,36.7864865 27.3421053,36.9182432 27.3157895,36.8918919 C27.4736842,36.6547297 27.8684211,36.2331081 28.0263158,35.9959459 C28.0526316,36.0222973 28.0789474,36.0486486 28.1315789,36.075 L28.1315789,36.075 Z M75.4210526,72.597973 C75.4473684,72.597973 75.4473684,72.5716216 75.4736842,72.5716216 C75.6578947,72.597973 75.8684211,72.6243243 76.0789474,72.6243243 C75.7368421,72.8614865 75.5263158,72.8351351 75.4210526,72.597973 L75.4210526,72.597973 Z M28.1842105,37.1817568 C28.2105263,37.1027027 28.2631579,37.0236486 28.3157895,36.9445946 C28.3684211,36.9445946 28.4473684,36.9182432 28.4473684,36.9182432 C28.5526316,36.7337838 28.5526316,36.602027 28.6578947,36.4439189 C28.6315789,36.4175676 28.6052632,36.4175676 28.5789474,36.3912162 C28.4210526,36.4966216 28.2631579,36.6283784 28.1052632,36.7337838 C28.1578947,36.7864865 28.1578947,36.8128378 28.1578947,36.8655405 C27.9473684,36.8391892 27.8684211,36.9445946 27.7631579,37.2344595 C27.7368421,37.3135135 27.6052632,37.3398649 27.4736842,37.4452703 C27.4473684,37.497973 27.4210526,37.6297297 27.3684211,37.7614865 L27.3947368,37.7878378 C27.3421053,37.8405405 27.2631579,37.8668919 27.2631579,37.8668919 C27.1052632,38.025 26.9210526,38.1567568 26.7631579,38.3148649 C26.7368421,38.3939189 26.7105263,38.472973 26.7105263,38.552027 C26.8947368,38.3675676 27.2105263,38.025 27.4473684,37.8141892 L27.4736842,37.8405405 C27.5789474,37.6824324 27.6578947,37.5243243 27.7631579,37.3662162 C27.7894737,37.3925676 27.7894737,37.4189189 27.8157895,37.4452703 C27.7368421,37.6560811 27.6578947,37.8932432 27.5789474,38.1040541 C27.5263158,38.1304054 27.4473684,38.1831081 27.4473684,38.1567568 C27.3421053,38.2358108 27.2631579,38.3412162 27.1578947,38.4202703 L26.6842105,38.7364865 C26.4210526,38.9736486 26.1578947,39.1844595 25.8684211,39.4216216 C25.6842105,39.7114865 25.5,39.975 25.2894737,40.3175676 C25.6052632,40.2385135 25.6842105,40.3702703 25.6578947,40.6337838 C26.0263158,40.6864865 26.0526316,40.3966216 26.1578947,40.1858108 C26.1842105,40.1331081 26.2105263,40.0277027 26.2631579,40.0013514 C26.5,39.7905405 26.7631579,39.6060811 27.0263158,39.3952703 C27.0789474,39.3425676 27.0789474,39.2371622 27.0789474,39.1581081 C27.0789474,39.1317568 26.9473684,39.1317568 26.8684211,39.1054054 C27.1052632,38.8418919 27.4473684,38.3939189 27.6842105,38.1040541 C27.8157895,38.025 27.9473684,37.9195946 27.9473684,37.8405405 C27.9210526,37.5506757 28.1052632,37.4716216 28.3157895,37.3662162 C28.2105263,37.2871622 28.1842105,37.2081081 28.1842105,37.1817568 L28.1842105,37.1817568 Z" id="Shape"></path>
                    <path d="M28.7105263,36.8918919 C28.6052632,37.0763514 28.5,37.2344595 28.3947368,37.4189189 L28.2368421,37.3398649 C28.1315789,37.9459459 27.7631579,38.472973 27.3947368,38.5783784 C27.5,38.6310811 27.6052632,38.6837838 27.6842105,38.6574324 C27.7631579,38.6310811 27.8157895,38.4993243 27.8684211,38.4202703 L28.5789474,37.3925676 L28.8157895,36.9972973 L28.7105263,36.8918919 L28.7105263,36.8918919 Z M19.9473684,48.4601351 C20.0789474,48.4601351 20.2105263,48.4864865 20.3684211,48.4864865 C20.3684211,48.3810811 20.5,48.4074324 20.5,48.302027 L20.5789474,48.302027 C20.5789474,48.4337838 20.6052632,48.5391892 20.6052632,48.6709459 L20.0526316,48.6709459 C20.0263158,48.6445946 19.9210526,48.4864865 19.9473684,48.4601351 L19.9473684,48.4601351 Z M19.7368421,47.247973 C19.6578947,47.1689189 19.5263158,47.0898649 19.5263158,47.0108108 C19.5,46.9054054 19.5789474,46.7736486 19.6578947,46.6418919 C19.7105263,46.8263514 19.7368421,46.9844595 19.7894737,47.1689189 C19.7631579,47.1952703 19.7368421,47.2216216 19.7368421,47.247973 L19.7368421,47.247973 Z M20.3947368,45.5614865 C20.5,45.825 20.6052632,46.1148649 20.7105263,46.3783784 C20.6842105,46.3783784 20.5263158,46.4574324 20.5,46.4837838 C20.3947368,46.2202703 20.2631579,45.9304054 20.1578947,45.6668919 C20.1842105,45.6405405 20.3421053,45.5614865 20.3947368,45.5614865 L20.3947368,45.5614865 Z M78.9736842,70.7533784 C79.1052632,70.7006757 79.2631579,70.6743243 79.4736842,70.6216216 C79.2368421,70.8060811 79.0526316,70.9378378 78.8947368,71.0959459 C78.8684211,71.0695946 78.8421053,71.0432432 78.8157895,71.0432432 C78.8684211,70.9378378 78.9210526,70.8587838 78.9736842,70.7533784 L78.9736842,70.7533784 Z M46.6315789,15.072973 C46.7894737,14.9675676 46.9210526,14.8885135 47.0789474,14.7831081 L47.1315789,14.8358108 C46.9736842,15.0466216 46.8421053,15.2574324 46.6578947,15.5209459 C46.6315789,15.3364865 46.6315789,15.2310811 46.6052632,15.0993243 C46.5789474,15.0993243 46.6052632,15.0993243 46.6315789,15.072973 L46.6315789,15.072973 Z M54.3421053,28.4067568 C54.5789474,28.3013514 54.8157895,28.1959459 55.1052632,28.0641892 C55.0789474,28.2222973 55.0789474,28.3277027 55.0789474,28.4331081 C55,28.4067568 54.8947368,28.3804054 54.8157895,28.3804054 C54.6578947,28.4067568 54.3684211,28.6175676 54.2368421,28.6439189 C54.2105263,28.6439189 54.3421053,28.4331081 54.3421053,28.4067568 L54.3421053,28.4067568 Z M74.0789474,50.7527027 C74.1315789,51.0162162 74.6315789,51.147973 74.1315789,51.4114865 C74.2105263,51.4641892 74.2894737,51.4905405 74.3684211,51.5432432 C74.3684211,51.5695946 74.3421053,51.6222973 74.3157895,51.6486486 C74.2631579,51.675 74.1578947,51.7277027 74.1052632,51.7013514 C74.0789474,51.7013514 74.0263158,51.5959459 74.0263158,51.5432432 C74.0263158,51.3060811 74.0526316,51.0689189 74.0789474,50.7527027 L74.0789474,50.7527027 Z" id="Shape"></path>
                </g>
            </g>
        </g>
    </g>
</svg>