<?xml version="1.0" encoding="UTF-8" standalone="no"?>
<svg width="252px" height="78px" viewBox="0 0 252 78" version="1.1" xmlns="http://www.w3.org/2000/svg" xmlns:xlink="http://www.w3.org/1999/xlink" xmlns:sketch="http://www.bohemiancoding.com/sketch/ns">
    <!-- Generator: sketchtool 3.4 (375) - http://www.bohemiancoding.com/sketch -->
    <title>postcss-logo-horizontal</title>
    <desc>Created with sketchtool.</desc>
    <defs></defs>
    <g id="Logo-Variations" stroke="none" stroke-width="1" fill="none" fill-rule="evenodd" sketch:type="MSPage">
        <g id="Color" sketch:type="MSArtboardGroup" transform="translate(-65.000000, -74.000000)">
            <g id="postcss-logo-horizontal" sketch:type="MSLayerGroup" transform="translate(65.000000, 74.000000)">
                <g id="postcss-logo-type" transform="translate(92.000000, 13.000000)" sketch:type="MSShapeGroup">
                    <g id="Name-Path" transform="translate(3.000000, 10.000000)">
                        <path d="M132.29293,23.8466797 L135.751914,23.0605469 C137.144499,27.2383021 140.161722,29.3271484 144.803672,29.3271484 C147.229465,29.3271484 149.05627,28.8142955 150.284141,27.7885742 C151.512011,26.7628529 152.125938,25.389006 152.125938,23.6669922 C152.125938,22.3642513 151.658006,21.3160847 150.722129,20.5224609 C149.786252,19.7288372 148.704394,19.1822932 147.476524,18.8828125 L141.344688,17.3554688 C139.75744,16.9511699 138.458462,16.4607776 137.447715,15.8842773 C136.436968,15.3077771 135.579717,14.4205789 134.875938,13.2226562 C134.172158,12.0247336 133.820274,10.6546301 133.820274,9.11230469 C133.820274,6.55174501 134.786084,4.51156359 136.717734,2.99169922 C138.649385,1.47183485 141.12755,0.711914062 144.152305,0.711914062 C149.722645,0.711914062 153.383741,3.23500081 155.135703,8.28125 L151.654258,9.31445312 C151.249959,7.51756914 150.299122,6.15869601 148.801719,5.23779297 C147.304315,4.31688993 145.709605,3.85644531 144.017539,3.85644531 C142.340447,3.85644531 140.84681,4.29817267 139.536582,5.18164062 C138.226354,6.06510858 137.57125,7.3154216 137.57125,8.93261719 C137.57125,11.1936962 139.233343,12.7210247 142.557578,13.5146484 L148.285117,14.8847656 C153.526029,16.1425844 156.146445,18.9651473 156.146445,23.3525391 C156.146445,26.0029429 155.161917,28.2078363 153.192832,29.9672852 C151.223747,31.7267341 148.449849,32.6064453 144.871055,32.6064453 C138.522065,32.6064453 134.329398,29.6865526 132.29293,23.8466797 Z M106.213477,23.8466797 L109.672461,23.0605469 C111.065046,27.2383021 114.082269,29.3271484 118.724219,29.3271484 C121.150012,29.3271484 122.976817,28.8142955 124.204688,27.7885742 C125.432558,26.7628529 126.046484,25.389006 126.046484,23.6669922 C126.046484,22.3642513 125.578553,21.3160847 124.642676,20.5224609 C123.706799,19.7288372 122.624941,19.1822932 121.39707,18.8828125 L115.265234,17.3554688 C113.677987,16.9511699 112.379009,16.4607776 111.368262,15.8842773 C110.357515,15.3077771 109.500264,14.4205789 108.796484,13.2226562 C108.092705,12.0247336 107.74082,10.6546301 107.74082,9.11230469 C107.74082,6.55174501 108.706631,4.51156359 110.638281,2.99169922 C112.569932,1.47183485 115.048097,0.711914062 118.072852,0.711914062 C123.643192,0.711914062 127.304288,3.23500081 129.05625,8.28125 L125.574805,9.31445312 C125.170506,7.51756914 124.219669,6.15869601 122.722266,5.23779297 C121.224862,4.31688993 119.630152,3.85644531 117.938086,3.85644531 C116.260994,3.85644531 114.767357,4.29817267 113.457129,5.18164062 C112.146901,6.06510858 111.491797,7.3154216 111.491797,8.93261719 C111.491797,11.1936962 113.15389,12.7210247 116.478125,13.5146484 L122.205664,14.8847656 C127.446576,16.1425844 130.066992,18.9651473 130.066992,23.3525391 C130.066992,26.0029429 129.082464,28.2078363 127.113379,29.9672852 C125.144294,31.7267341 122.370396,32.6064453 118.791602,32.6064453 C112.442612,32.6064453 108.249945,29.6865526 106.213477,23.8466797 Z M100.726992,21.6904297 L104.230899,22.4765625 C102.553807,29.2298515 98.7654332,32.6064453 92.8656642,32.6064453 C88.9873896,32.6064453 85.943963,31.0416823 83.7352931,27.9121094 C81.5266232,24.7825364 80.4223048,20.9342676 80.4223048,16.3671875 C80.4223048,11.650367 81.575288,7.86199347 83.8812892,5.00195312 C86.1872903,2.14191278 89.2793817,0.711914062 93.1576563,0.711914062 C98.9076851,0.711914062 102.598729,3.99866505 104.230899,10.5722656 L100.614688,11.2910156 C99.2969727,6.4094808 96.8038335,3.96875 93.1351954,3.96875 C90.4248954,3.96875 88.3248187,5.103016 86.8349024,7.37158203 C85.3449861,9.64014806 84.6000392,12.8258258 84.6000392,16.9287109 C84.6000392,20.6871933 85.3637034,23.7006723 86.8910548,25.9692383 C88.4184062,28.2378043 90.4398703,29.3720703 92.9555079,29.3720703 C96.8637306,29.3720703 99.4541995,26.811549 100.726992,21.6904297 Z" id="CSS" fill="#3F526B"></path>
                        <path d="M4.68164062,32 L0.840820312,32 L0.840820312,1.34082031 L11.7119141,1.34082031 C15.1110196,1.34082031 17.6191325,2.26545299 19.2363281,4.11474609 C20.8535237,5.96403919 21.6621094,8.07160275 21.6621094,10.4375 C21.6621094,13.0729298 20.7823981,15.251619 19.0229492,16.9736328 C17.2635003,18.6956466 14.9612772,19.5566406 12.1162109,19.5566406 L4.68164062,19.5566406 L4.68164062,32 Z M4.68164062,16.3671875 L11.734375,16.3671875 C13.546233,16.3671875 15.0061794,15.8243869 16.1142578,14.7387695 C17.2223363,13.6531521 17.7763672,12.21941 17.7763672,10.4375 C17.7763672,8.91014861 17.2822315,7.54753203 16.2939453,6.34960938 C15.3056591,5.15168672 13.8756604,4.55273438 12.0039062,4.55273438 L4.68164062,4.55273438 L4.68164062,16.3671875 Z M32.1136329,32.6064453 C28.999034,32.6064453 26.5695336,31.4534621 24.8250587,29.1474609 C23.0805838,26.8414598 22.2083595,23.9814624 22.2083595,20.5673828 C22.2083595,16.9586408 23.1891439,14.0761827 25.1507423,11.9199219 C27.1123406,9.76366109 29.5530714,8.68554688 32.4730079,8.68554688 C35.6025809,8.68554688 38.0695158,9.81981288 39.8738868,12.0883789 C41.6782578,14.3569449 42.5804298,17.1907382 42.5804298,20.5898438 C42.5804298,24.1237156 41.6071322,27.0099172 39.6605079,29.2485352 C37.7138836,31.4871531 35.1982838,32.6064453 32.1136329,32.6064453 L32.1136329,32.6064453 Z M32.3831642,29.7089844 C34.1800482,29.7089844 35.6849159,28.9677808 36.8978126,27.4853516 C38.1107093,26.0029223 38.7171485,23.6969558 38.7171485,20.5673828 C38.7171485,17.4228358 38.0807617,15.1430735 36.8079689,13.7280273 C35.535176,12.3129812 34.0452821,11.6054688 32.3382423,11.6054688 C30.5862804,11.6054688 29.1038734,12.3204681 27.8909767,13.7504883 C26.67808,15.1805085 26.0716407,17.445297 26.0716407,20.5449219 C26.0716407,23.8242351 26.67808,26.1713796 27.8909767,27.5864258 C29.1038734,29.0014719 30.6012542,29.7089844 32.3831642,29.7089844 L32.3831642,29.7089844 Z M43.7165235,26.1152344 L47.0856642,25.4189453 C47.8343658,28.2789857 50.2002276,29.7089844 54.1833204,29.7089844 C55.6507757,29.7089844 56.8936018,29.3795606 57.911836,28.7207031 C58.9300703,28.0618457 59.4391798,27.1334695 59.4391798,25.9355469 C59.4391798,24.1536369 58.1439453,23.0231144 55.5534376,22.5439453 L50.7692579,21.6455078 C48.8975038,21.286131 47.4076098,20.582362 46.2995313,19.5341797 C45.1914529,18.4859974 44.637422,17.1009201 44.637422,15.3789062 C44.637422,13.477204 45.3935993,11.8862369 46.9059767,10.605957 C48.418354,9.32567719 50.454792,8.68554688 53.0153517,8.68554688 C57.9418086,8.68554688 60.9814917,10.6096813 62.1344923,14.4580078 L58.9001173,15.1542969 C57.9717272,12.7883996 56.0625666,11.6054688 53.1725782,11.6054688 C51.735071,11.6054688 50.5558836,11.9012015 49.6349806,12.4926758 C48.7140775,13.0841501 48.2536329,13.911453 48.2536329,14.9746094 C48.2536329,16.6517011 49.4290769,17.7073546 51.7800001,18.1416016 L56.2048048,18.9277344 C60.831781,19.7662802 63.1452345,22.0048646 63.1452345,25.6435547 C63.1452345,27.7249453 62.2842405,29.4057553 60.5622267,30.6860352 C58.8402128,31.966315 56.5492201,32.6064453 53.6891798,32.6064453 C48.3135019,32.6064453 44.9893164,30.44273 43.7165235,26.1152344 L43.7165235,26.1152344 Z M78.286211,29.5742188 L78.286211,32.359375 C77.0433663,32.5240894 75.9652521,32.6064453 75.051836,32.6064453 C70.6644443,32.6064453 68.4707813,30.3154526 68.4707813,25.7333984 L68.4707813,12.0771484 L64.4502735,12.0771484 L64.4502735,9.31445312 L68.4707813,9.31445312 L68.6280079,3.609375 L71.9073048,3.29492188 L71.9073048,9.31445312 L76.9834767,9.31445312 L76.9834767,12.0771484 L71.9073048,12.0771484 L71.9073048,26.3173828 C71.9073048,28.653332 73.1201833,29.8212891 75.5459767,29.8212891 C76.3545744,29.8212891 77.2679768,29.7389331 78.286211,29.5742188 L78.286211,29.5742188 Z" id="Post" fill="#DD390A"></path>
                    </g>
                </g>
                <g id="postcss-logo-symbol" sketch:type="MSShapeGroup">
                    <path d="M15.4473684,32.622973 C15.5526316,32.702027 15.7368421,32.7547297 15.5526316,32.9128378 C15.4210526,33.0972973 15.2631579,33.2554054 15.1578947,33.4662162 C15.0526316,33.6506757 14.9736842,33.7033784 14.8157895,33.5716216 C15.0263158,33.2290541 15.2368421,32.9128378 15.4473684,32.622973 L15.4473684,32.622973 Z M68.3421053,60.2391892 C68.3421053,60.3182432 68.3684211,60.3709459 68.3684211,60.45 C68.4210526,60.3445946 68.4210526,60.2918919 68.4473684,60.2391892 L68.3421053,60.2391892 L68.3421053,60.2391892 Z M68.3421053,60.4763514 L68.3421053,60.45 L68.3421053,60.4763514 L68.3421053,60.4763514 Z M62.9736842,70.7533784 L58.3947368,45.3506757 C58.3157895,45.3243243 58.2105263,45.2716216 58.0263158,45.2189189 C58.0789474,45.3243243 58.1052632,45.4033784 58.1315789,45.4824324 C58.2631579,45.4560811 58.3157895,45.4560811 58.3684211,45.4297297 C58.3684211,45.4033784 58.3684211,45.377027 58.3947368,45.3506757 L62.9736842,70.7533784 Z M58.2368421,39.6324324 C58.2105263,39.7114865 58.2105263,39.7905405 58.2105263,39.8695946 C58.2105263,39.7905405 58.2105263,39.7114865 58.2368421,39.6324324 L58.2368421,39.6324324 Z M58.2631579,40.1594595 C58.2368421,40.1594595 58.2368421,40.1594595 58.2105263,40.1331081 L58.2105263,40.1594595 C58.2368421,40.1858108 58.2368421,40.1858108 58.2631579,40.1594595 L58.2631579,40.1594595 Z M58.2105263,40.3702703 L58.2105263,40.1858108 C58.1315789,40.2121622 58.0526316,40.2121622 57.9473684,40.2385135 C58.0789474,40.2912162 58.2105263,40.3175676 58.2105263,40.3702703 L58.2105263,40.3702703 Z" id="Shape" fill="#DD3735"></path>
                    <path d="M78.7105263,33.9668919 C78.6578947,32.9391892 78.6315789,31.9114865 78.5263158,30.8837838 C78.3421053,29.4871622 78.1578947,28.0641892 77.8421053,26.6939189 C77.6052632,25.5608108 77.2105263,24.4804054 76.8157895,23.4 C76.3157895,22.1351351 75.8157895,20.8439189 75.1842105,19.6317568 C74.1578947,17.6817568 72.8157895,15.9425676 71.5789474,14.1243243 C70.7631579,12.9648649 69.7105263,12.0162162 68.9210526,10.8304054 C68.4736842,10.1452703 67.8157895,9.56554054 67.1578947,9.03851351 C66.1052632,8.19527027 65,7.43108108 63.8947368,6.69324324 C63.0526316,6.11351351 62.2105263,5.56013514 61.3157895,5.05945946 C60.6052632,4.66418919 59.8421053,4.34797297 59.1052632,4.00540541 C58.2631579,3.61013514 57.4473684,3.13581081 56.5,2.95135135 C56.2631579,2.89864865 56.0526316,2.81959459 55.8157895,2.74054054 C55.2105263,2.52972973 54.6315789,2.29256757 54.0263158,2.10810811 C53.1052632,1.81824324 52.2105263,1.47567568 51.2631579,1.23851351 C50.3421053,1.00135135 49.3947368,0.843243243 48.4473684,0.711486486 C47.3947368,0.553378378 46.3157895,0.500675676 45.2631579,0.39527027 C44.5789474,0.316216216 43.8947368,0.237162162 43.2368421,0.210810811 C42.2368421,0.158108108 41.2105263,0.158108108 40.2105263,0.131756757 C39.7105263,0.105405405 39.1842105,0.0527027027 38.6842105,0.0790540541 C37.9210526,0.105405405 37.1578947,0.184459459 36.3947368,0.289864865 C35.6578947,0.368918919 34.9210526,0.500675676 34.2105263,0.606081081 C33.3421053,0.711486486 32.4736842,0.764189189 31.6052632,0.869594595 C30.7894737,0.975 29.9473684,1.13310811 29.1315789,1.26486486 C28.8421053,1.31756757 28.5526316,1.42297297 28.2631579,1.47567568 C27.6315789,1.60743243 26.9736842,1.66013514 26.3421053,1.87094595 C25.2105263,2.21351351 24.0789474,2.60878378 22.9736842,3.03040541 C21.9473684,3.45202703 20.9473684,3.9 19.9736842,4.42702703 C18.9736842,4.98040541 18.0263158,5.63918919 17.0789474,6.27162162 C16.1842105,6.8777027 15.2894737,7.51013514 14.4210526,8.19527027 C13.5789474,8.85405405 12.7894737,9.59189189 12.0263158,10.3297297 C11.6052632,10.7513514 11.2631579,11.252027 10.8684211,11.7263514 C10.2105263,12.4905405 9.55263158,13.2283784 8.92105263,14.0189189 C8.39473684,14.6777027 7.92105263,15.3628378 7.42105263,16.047973 C6.52631579,17.2601351 5.76315789,18.5513514 5.05263158,19.8425676 C4.76315789,20.3695946 4.5,20.8966216 4.23684211,21.4236486 C3.84210526,22.2141892 3.42105263,22.9783784 3.05263158,23.7952703 C2.78947368,24.3486486 2.57894737,24.9547297 2.42105263,25.5608108 C2.05263158,26.852027 1.68421053,28.1695946 1.34210526,29.4608108 C1.02631579,30.6202703 0.947368421,31.8324324 0.921052632,33.0182432 C0.894736842,34.0722973 1,35.1 1.10526316,36.1540541 C1.13157895,36.4175676 0.973684211,36.7337838 1.28947368,36.9445946 C1.18421053,37.2344595 1.26315789,37.3925676 1.42105263,37.4452703 C1.23684211,37.7351351 1.5,37.9195946 1.39473684,38.1831081 C1.36842105,38.2358108 1.47368421,38.3412162 1.52631579,38.4202703 C1.52631579,38.4993243 1.5,38.6047297 1.52631579,38.6837838 C1.55263158,38.9209459 1.65789474,39.1581081 1.65789474,39.4216216 C1.65789474,39.6060811 1.81578947,39.8168919 1.86842105,40.0013514 C1.89473684,40.0804054 1.86842105,40.2121622 1.81578947,40.2648649 C1.65789474,40.4493243 1.68421053,40.6074324 1.92105263,40.7128378 C2.05263158,41.0554054 2,41.2135135 1.97368421,41.3716216 C2.02631579,41.6087838 1.94736842,41.6878378 1.97368421,41.7405405 C2.18421053,42.1621622 2.26315789,42.6364865 2.28947368,43.1108108 C2.28947368,43.2162162 2.34210526,43.3216216 2.39473684,43.4533784 C2.42105263,43.4533784 2.39473684,43.9540541 2.39473684,43.9540541 C2.52631579,43.875 2.63157895,43.8486486 2.76315789,43.7959459 C2.84210526,44.1385135 2.92105263,44.4547297 3.02631579,44.7445946 C3.15789474,44.9554054 3.15789474,45.0608108 3.10526316,45.0871622 C3.21052632,45.5614865 3.26315789,46.0094595 3.44736842,46.4574324 C3.44736842,45.9567568 3.39473684,45.4560811 3.31578947,44.9817568 C3.68421053,45.1135135 4,45.2452703 4.21052632,45.2452703 C4.23684211,45.1662162 4.26315789,45.0608108 4.28947368,45.0081081 C4.13157895,44.85 4,44.6128378 3.84210526,44.4547297 C3.89473684,44.6655405 3.84210526,44.7445946 3.84210526,44.8236486 C3.73684211,44.7709459 3.60526316,44.7182432 3.47368421,44.6655405 C3.57894737,44.5337838 3.68421053,44.402027 3.84210526,44.2439189 C3.84210526,44.0067568 3.71052632,43.7959459 3.34210526,43.8222973 C3.5,43.7695946 3.65789474,43.6905405 3.84210526,43.6378378 C4.13157895,43.4797297 3.81578947,43.1898649 3.81578947,42.8209459 C3.84210526,42.372973 3.57894737,41.925 3.5,41.4506757 C3.36842105,40.7128378 3.39473684,39.6060811 3.31578947,38.8682432 C3.15789474,38.7364865 3.02631579,39.0790541 3,39.1054054 C3.07894737,39.7378378 3.15789474,40.3702703 3.21052632,41.0027027 C3.05263158,40.4756757 2.94736842,39.8959459 2.81578947,39.2635135 C2.78947368,39.447973 2.76315789,39.527027 2.76315789,39.6324324 C2.63157895,39.7641892 2.73684211,39.9222973 2.81578947,40.1067568 C2.63157895,40.0277027 2.42105263,40.0540541 2.42105263,40.0540541 L2.42105263,40.7918919 C2.15789474,40.5283784 2.07894737,40.3175676 1.94736842,40.1331081 C1.89473684,39.9222973 1.86842105,39.7114865 1.81578947,39.5006757 C1.86842105,39.3689189 1.81578947,39.2898649 1.81578947,39.2108108 C1.78947368,39.0263514 1.76315789,38.8155405 1.73684211,38.5783784 C1.76315789,38.552027 1.71052632,38.1567568 1.71052632,38.1567568 C1.92105263,38.1831081 2.05263158,38.2094595 2.18421053,38.2094595 C1.92105263,37.8668919 2.10526316,37.6560811 2.21052632,37.4452703 C2.26315789,37.3398649 2.44736842,37.3135135 2.5,37.2081081 C2.71052632,36.8128378 3.05263158,36.4966216 3.05263158,35.9959459 C3.05263158,35.7587838 3.13157895,35.4952703 3.15789474,35.2581081 C3.21052632,34.8101351 3.26315789,34.3621622 3.28947368,33.9141892 C3.34210526,33.3344595 3.28947368,32.7547297 3.42105263,32.2013514 C3.63157895,31.2790541 3.89473684,30.3567568 4.18421053,29.4344595 C4.39473684,28.7756757 4.63157895,28.1432432 4.89473684,27.4844595 C5.28947368,26.4567568 5.65789474,25.4290541 6.15789474,24.4540541 C6.86842105,23.0310811 7.68421053,21.6608108 8.47368421,20.2641892 C8.97368421,19.3945946 9.5,18.5777027 10.0526316,17.7344595 C10.5789474,16.9175676 11.1052632,16.0743243 11.7105263,15.3101351 C12.5526316,14.2297297 13.4736842,13.2283784 14.5,12.3324324 C15.5526316,11.3837838 16.5526316,10.4087838 17.6842105,9.53918919 C19.1578947,8.40608108 20.7105263,7.40472973 22.3684211,6.53513514 C23.7105263,5.82364865 25.1052632,5.27027027 26.5,4.74324324 C27.3947368,4.40067568 28.3684211,4.24256757 29.2894737,3.9527027 C30.3421053,3.61013514 31.3947368,3.45202703 32.5,3.42567568 C33.2105263,3.39932432 33.8947368,3.32027027 34.6052632,3.24121622 C35.2368421,3.18851351 35.8684211,3.13581081 36.5526316,3.05675676 C36.4736842,3.16216216 36.4473684,3.21486486 36.4210526,3.26756757 C36.1315789,3.68918919 35.8157895,4.11081081 35.5263158,4.53243243 C35.2894737,4.875 35.0263158,5.24391892 34.7894737,5.58648649 C34.3684211,6.13986486 33.9210526,6.69324324 33.5263158,7.27297297 C32.9210526,8.14256757 32.3684211,9.03851351 31.7368421,9.90810811 C31.1052632,10.7513514 30.4210526,11.5418919 29.7631579,12.3587838 C28.8947368,13.4918919 28.0789474,14.6513514 27.2105263,15.7844595 C26.4210526,16.8648649 25.5789474,17.8925676 24.8157895,18.972973 C24.1315789,19.9216216 23.5263158,20.922973 22.8684211,21.897973 C21.8947368,23.3472973 20.9210526,24.7702703 19.9473684,26.2195946 C19.1842105,27.3263514 18.4210526,28.4067568 17.6315789,29.5135135 C17.5789474,29.5925676 17.5,29.6189189 17.4210526,29.6716216 C17.2105263,30.0141892 17.2105263,30.1986486 17.1315789,30.3567568 C16.9210526,30.752027 16.7105263,31.1472973 16.4736842,31.5162162 C16.3421053,31.727027 16.1578947,31.9114865 16,32.1222973 C15.9736842,31.8060811 16.4210526,31.647973 16.2105263,31.2527027 C16.0789474,31.4635135 15.9473684,31.647973 15.8157895,31.8587838 L15.5,32.4912162 C15.6052632,32.5702703 15.7894737,32.622973 15.6052632,32.7810811 C15.5263158,32.9128378 15.4473684,33.0709459 15.3684211,33.2027027 C15.5,33.1236486 15.5789474,33.0445946 15.6578947,32.9391892 C15.6578947,33.2290541 15.5,33.4662162 15.3684211,33.7033784 C15.2631579,33.9141892 15,34.0722973 14.8157895,34.2304054 C14.8421053,34.2567568 15.0263158,34.3358108 15.0526316,34.3621622 C15.2894737,34.2831081 15.3684211,34.1513514 15.3947368,34.2304054 C15.4736842,34.125 15.5526316,34.0459459 15.5789474,33.9668919 C15.6842105,33.7033784 15.8421053,33.4925676 16.1052632,33.3871622 C16.2105263,33.3344595 16.2894737,33.2554054 16.3684211,33.1763514 C17.1578947,32.3594595 17.9736842,31.5689189 18.6842105,30.6993243 C19.7894737,29.3554054 20.7894737,27.9587838 21.8421053,26.5885135 C22.2894737,26.0087838 22.8157895,25.4290541 23.2894737,24.8756757 C23.3684211,25.4817568 23.3157895,26.0614865 23.2894737,26.6148649 C23.2105263,27.5898649 23.1578947,28.5648649 23.0789474,29.5662162 C23.0526316,29.9614865 23.0789474,30.3567568 23.0526316,30.752027 C23.0526316,30.8574324 22.9736842,30.9364865 22.9736842,31.0418919 C22.9736842,31.3054054 23.0526316,31.5952703 23.0526316,31.8587838 C22.9736842,32.8337838 22.8684211,33.7824324 22.7894737,34.7574324 C22.7631579,34.9682432 22.8684211,35.1790541 22.9210526,35.3635135 C22.7894737,36.7864865 23.0789474,38.2885135 22.8421053,39.7905405 C23.0263158,39.5006757 23.0789474,39.3162162 23.0789474,39.1317568 C23.1052632,38.9736486 23.0789474,38.8155405 23.0789474,38.6310811 L23.0789474,38.3675676 C23.1052632,37.8932432 23.2105263,37.3925676 23.1578947,36.9182432 C23.1052632,36.3912162 23.1052632,35.8905405 23.2105263,35.3898649 C23.2631579,35.1790541 23.1842105,34.9155405 23.3157895,34.652027 L23.3157895,35.0472973 C23.2894737,36.5493243 23.3421053,38.0513514 23.1315789,39.5533784 C23.1052632,39.6851351 23.2105263,39.9222973 22.9210526,39.8959459 C22.6842105,40.3702703 22.9736842,40.7128378 22.7105263,40.9763514 C22.6578947,41.0290541 22.7631579,41.2662162 22.7894737,41.4243243 C22.6842105,41.7405405 22.6842105,41.7405405 22.8421053,41.7668919 C22.8684211,42.3466216 22.9210526,42.8736486 22.9473684,43.427027 C23.3684211,42.4256757 23.1578947,41.397973 23.3421053,40.3702703 C23.3684211,40.7918919 23.3947368,41.2135135 23.3684211,41.6614865 C23.3684211,42.3466216 23.3421053,43.0054054 23.3157895,43.6905405 C23.3157895,43.8222973 23.2894737,43.9540541 23.2631579,44.0858108 C23.1842105,44.4547297 23.1578947,44.8236486 23.0263158,45.1662162 C22.9210526,45.4297297 22.9736842,45.825 22.9736842,46.1412162 L22.9736842,47.1425676 C23.0789474,47.5905405 22.9473684,47.8277027 23.0263158,48.0912162 C22.9473684,48.3547297 22.9210526,48.4337838 22.9473684,48.5128378 L23.0263158,48.9081081 C23.5526316,48.8554054 23.3157895,49.2506757 23.5263158,49.4614865 C23.3684211,49.6722973 23.4210526,49.7513514 23.4210526,49.8567568 C23.4210526,50.0939189 23.3947368,50.3047297 23.3684211,50.5418919 C23.3684211,51.147973 23.3421053,51.7540541 23.3421053,52.3337838 C23.3421053,52.4128378 23.3684211,52.4918919 23.3684211,52.5709459 C23.3684211,52.6236486 23.3421053,53.3087838 23.3421053,53.3087838 C23.3947368,53.3878378 23.3421053,53.4668919 23.2631579,53.5459459 C23.2368421,53.5459459 23.1578947,50.1993243 23.1578947,50.1993243 L22.7631579,50.1993243 C22.7105263,51.7804054 22.8421053,53.2033784 22.5526316,54.6790541 C22.2368421,54.7054054 22.1315789,54.7581081 21.7894737,54.7581081 C20.9736842,54.7581081 20.1578947,54.7581081 19.3421053,54.7844595 C18.3684211,54.7844595 17.4210526,54.8108108 16.4473684,54.8108108 C15.9736842,54.8108108 15.4736842,54.8635135 15,54.8635135 C14.3684211,54.8635135 13.7105263,54.7844595 13.0789474,54.7844595 C12.1052632,54.7844595 11.1578947,54.8635135 10.1842105,54.8898649 C9.47368421,54.9162162 8.76315789,54.9162162 8.05263158,54.9425676 C7.57894737,54.9689189 7.10526316,54.9952703 6.63157895,55.047973 C6.42105263,55.0743243 6.23684211,55.1533784 5.97368421,55.2324324 C5.89473684,55.2324324 5.71052632,55.2060811 5.55263158,55.2324324 C5.28947368,55.2851351 5.05263158,55.4432432 4.78947368,55.4959459 C4.39473684,55.575 4.28947368,55.6804054 4.34210526,56.0756757 L4.34210526,56.3391892 C4.31578947,56.3918919 4.92105263,56.2601351 4.92105263,56.2601351 C4.86842105,56.2601351 4.84210526,56.4182432 4.76315789,56.55 C4.97368421,56.4709459 5.10526316,56.4182432 5.23684211,56.3655405 C5.63157895,56.55 5.97368421,56.4445946 6.28947368,56.5236486 C7.31578947,56.7871622 8.36842105,56.8925676 9.42105263,56.997973 C10.1052632,57.0506757 10.7631579,57.077027 11.4473684,57.1033784 C12.4210526,57.1560811 13.3947368,57.2087838 14.3684211,57.2087838 C15.1842105,57.2087838 15.9736842,57.1297297 16.7894737,57.1297297 C17.9210526,57.1297297 19.0526316,57.1824324 20.1842105,57.2087838 C20.4210526,57.2087838 20.6842105,57.1824324 20.9473684,57.1824324 L22.8684211,57.1824324 C24.5789474,57.1297297 26.2894737,57.1033784 28,57.0506757 C28.9736842,57.0243243 29.9736842,56.9716216 30.9473684,56.9452703 L33.9473684,56.8662162 C35.1052632,56.8398649 36.2631579,56.8398649 37.3947368,56.8135135 C38.2631579,56.8135135 39.1052632,56.7871622 39.9736842,56.7608108 C40.9473684,56.7344595 41.9473684,56.6554054 42.9210526,56.6027027 C43.4473684,56.5763514 43.9736842,56.5236486 44.5,56.4709459 C45.1315789,56.4182432 45.7894737,56.3391892 46.4210526,56.3128378 C47.3684211,56.2601351 48.3421053,56.2337838 49.2894737,56.1810811 C50.4736842,56.102027 51.6578947,55.9966216 52.8684211,55.9702703 C53.9736842,55.9175676 55.1052632,55.9439189 56.2105263,55.9175676 C57.1842105,55.8912162 58.1578947,55.8385135 59.1578947,55.8121622 L60.8157895,55.7331081 C60.8157895,55.7331081 61.9210526,55.7067568 62.4736842,55.6540541 C63.4210526,55.6013514 64.3684211,55.4959459 65.3157895,55.4695946 C65.9210526,55.4432432 66.5263158,55.4695946 67.1315789,55.4432432 C68.1052632,55.4168919 69.1052632,55.3641892 70.0789474,55.3641892 C70.4473684,55.3641892 70.8421053,55.4168919 71.3157895,55.4432432 C71.1052632,55.6277027 70.9736842,55.7331081 70.8157895,55.8648649 C70.9210526,55.8912162 71.0263158,55.9439189 71.1315789,55.9966216 C70.9736842,56.102027 70.8421053,56.1283784 70.7105263,56.1283784 C70.6578947,56.2601351 70.6052632,56.3128378 70.5526316,56.5763514 L71.0263158,56.5763514 C70.8421053,56.5763514 70.6842105,56.8135135 70.5,56.9716216 C70.2894737,56.9189189 70.1052632,56.9716216 70,57.2614865 C70.1842105,57.3668919 70.1578947,57.4459459 70.1315789,57.5513514 C69.8157895,57.6567568 69.5789474,57.7621622 69.7105263,58.1047297 C69.6052632,58.1574324 69.4736842,58.2101351 69.3421053,58.2891892 C69.2105263,58.5 68.9736842,58.5527027 69.0263158,58.8425676 C69.1315789,58.8689189 69.2368421,58.9216216 69.3157895,58.947973 C69.1842105,59.0006757 69.0526316,59.0797297 68.9210526,59.1324324 C68.4473684,59.4222973 68.6578947,59.5540541 68.7631579,59.6858108 C68.6842105,59.7385135 68.6052632,59.7912162 68.5263158,59.8175676 C68.5789474,60.0547297 68.6578947,60.1074324 68.6842105,60.1074324 C68.5789474,60.1864865 68.4473684,60.2918919 68.2894737,60.4236486 C68.2105263,60.6608108 68.1052632,60.7662162 68,60.9243243 C67.8947368,61.0824324 67.8421053,61.2932432 67.7105263,61.4513514 C67.1578947,62.0574324 66.7631579,62.7689189 66.0526316,63.2432432 C65.7894737,63.4277027 65.5526316,63.6648649 65.3157895,63.902027 C64.8421053,64.35 64.4210526,64.8506757 63.9210526,65.2722973 C63.2631579,65.8256757 62.5789474,66.3263514 61.8684211,66.827027 C61,67.4331081 60.1315789,68.0391892 59.2631579,68.6189189 C58.7894737,68.9351351 58.2631579,69.1722973 57.7631579,69.4621622 C57.2631579,69.752027 56.7894737,70.0155405 56.2894737,70.3054054 C55.9736842,70.5162162 55.6842105,70.8060811 55.3421053,70.9641892 C54.4736842,71.3331081 53.5526316,71.6493243 52.6578947,71.9918919 C51.7894737,72.3608108 51.1578947,72.677027 50.5,72.9141892 C49.8947368,73.125 49.2631579,73.2831081 48.6315789,73.4148649 C48.4210526,73.4675676 48.1842105,73.4148649 47.9473684,73.4412162 C47.5,73.5202703 47.0526316,73.6256757 46.6052632,73.6783784 C45.4473684,73.8364865 44.2894737,73.9418919 43.1315789,74.1 C42.4473684,74.1790541 41.7894737,74.3108108 41.1052632,74.3898649 C40.6315789,74.4162162 40.1315789,74.3635135 39.6578947,74.3635135 C39.3157895,74.3635135 38.9473684,74.4425676 38.6052632,74.3898649 C38.0526316,74.3108108 37.5,74.1790541 36.9473684,74.0736486 C36.8157895,74.0472973 36.6315789,73.9945946 36.5263158,74.0472973 C36.3157895,74.1527027 36.1315789,73.9945946 35.9210526,74.0472973 C35.7894737,74.0736486 35.6578947,73.9682432 35.5263158,73.9682432 C35.4210526,73.9418919 35.2894737,73.9945946 35.1578947,73.9682432 C34.8684211,73.8891892 34.6052632,73.7837838 34.2894737,73.8101351 C33.9736842,73.8364865 33.6578947,73.6783784 33.3157895,73.5993243 C32.8421053,73.4939189 32.3947368,73.3885135 31.9210526,73.2831081 C31.7368421,73.2304054 31.5789474,73.1513514 31.3947368,73.0459459 C30.7105263,73.0459459 30.2631579,73.0195946 29.8421053,72.8614865 C29.4736842,72.7297297 29.1315789,72.5452703 28.7368421,72.597973 C28.6315789,72.6243243 28.5526316,72.5716216 28.4473684,72.5716216 C28.3684211,72.4662162 28.2894737,72.2554054 28.2105263,72.2554054 C27.6842105,72.2817568 27.3684211,71.8337838 26.9210526,71.702027 C26.6842105,71.622973 26.5,71.3594595 26.2631579,71.2804054 C25.6842105,71.0432432 25.2105263,70.5425676 24.5526316,70.4635135 C24.3421053,70.4371622 24.1315789,70.3317568 23.8947368,70.2527027 C23.9736842,70.3581081 24.0263158,70.4371622 24.1052632,70.5162162 C23.3421053,70.1472973 22.6315789,69.7256757 21.9210526,69.3304054 C21.8157895,69.3040541 21.7368421,69.1986486 21.6578947,69.1459459 L20.9473684,68.6716216 C20.5526316,68.7506757 20.3947368,68.5925676 20.2894737,68.5398649 C19.5789474,68.0391892 18.7631579,67.722973 18.0789474,67.1695946 C17.7894737,66.9324324 17.4473684,66.7743243 17.2368421,66.4844595 C16.8684211,66.0364865 16.4210526,65.7202703 15.9210526,65.4567568 C15.5263158,65.2459459 15.1578947,65.0087838 14.7894737,64.7716216 C14.6052632,64.6398649 14.4210526,64.4817568 14.4210526,64.1918919 C14.4210526,64.0074324 14.3421053,63.822973 14.1052632,63.9283784 C14,63.7702703 13.8947368,63.5858108 13.7631579,63.5331081 C13.4473684,63.4013514 13.2368421,63.1641892 13,62.9533784 C12.7631579,62.7425676 12.5789474,62.4527027 12.2894737,62.3472973 C11.7631579,62.1364865 11.4473684,61.6885135 11.1315789,61.3195946 C10.3947368,60.45 9.73684211,59.5013514 9.05263158,58.5790541 C9,58.5 8.89473684,58.4472973 8.81578947,58.3682432 C8.92105263,58.6581081 9.05263158,58.8952703 9.18421053,59.1587838 C8.92105263,59.0533784 8.73684211,58.8689189 8.57894737,58.6844595 C8.55263158,58.7108108 10.3947368,61.7412162 10.3947368,61.7412162 C10.5526316,61.9783784 10.6842105,62.2155405 10.8421053,62.4527027 C10.4473684,62.4790541 10.1842105,62.2682432 10.0526316,62.0310811 C9.81578947,61.6094595 9.55263158,61.3459459 9.02631579,61.3986486 C8.97368421,61.2141892 8.92105263,61.0033784 8.89473684,60.8189189 C8.78947368,60.8189189 8.71052632,60.8189189 8.52631579,60.7925676 C8.89473684,61.3722973 9.21052632,61.872973 9.55263158,62.4527027 C9.42105263,62.3736486 9.34210526,62.3209459 9.28947368,62.2945946 C9.76315789,62.7952703 10.1052632,63.4277027 10.7105263,63.7439189 C10.8421053,64.35 11.5263158,64.6398649 11.6842105,65.2195946 C11.5526316,65.1932432 11.4473684,65.1668919 11.3157895,65.1405405 C11.1052632,64.877027 10.8684211,64.6135135 10.6315789,64.3236486 C10.6842105,64.5081081 10.7631579,64.6662162 10.8684211,64.797973 C11.1842105,65.1932432 11.4736842,65.5885135 11.8421053,65.9310811 C11.9736842,66.0628378 12.1578947,66.1155405 12.1578947,66.3527027 C12.3684211,66.4581081 12.4473684,66.4844595 12.5263158,66.4844595 C12.5789474,66.6425676 12.5,66.8797297 12.8157895,66.827027 C13.0263158,67.2222973 13.2368421,67.2222973 13.5263158,67.0905405 C13.8684211,67.4331081 14.0526316,67.4594595 14.2894737,67.2486486 C14.2894737,67.3804054 14.3157895,67.5121622 14.3157895,67.6175676 C14.4210526,67.5648649 14.3947368,67.4858108 14.3947368,67.3540541 C14.5263158,67.4594595 14.6052632,67.5121622 14.6578947,67.5648649 C14.9210526,67.9337838 15.1578947,68.2763514 15.5263158,68.5662162 C16.0263158,68.9878378 16.4736842,69.4358108 16.9473684,69.8310811 C17.8684211,70.5952703 18.8947368,71.2277027 19.9210526,71.8074324 C21.1842105,72.5189189 22.3947368,73.2831081 23.6842105,73.9682432 C25.2368421,74.7851351 26.8947368,75.3385135 28.6052632,75.7337838 C29.2368421,75.8655405 29.8421053,75.9972973 30.4736842,76.1554054 C31.0263158,76.3135135 31.5789474,76.5506757 32.1315789,76.6824324 C32.9736842,76.8668919 33.8421053,77.025 34.6842105,77.1831081 C34.8684211,77.2094595 35.0526316,77.2358108 35.2631579,77.2621622 C35.5,77.3148649 35.7894737,77.2094595 35.8421053,77.2885135 C35.9736842,77.4993243 36.0789474,77.3939189 36.2368421,77.3675676 C36.4210526,77.3148649 36.6315789,77.3148649 36.8421053,77.3148649 C37.5789474,77.3412162 38.2894737,77.4993243 39.0263158,77.4466216 C39.1842105,77.4466216 39.4210526,77.3148649 39.5526316,77.5783784 C39.7894737,77.472973 39.9210526,77.472973 40.0263158,77.4466216 C40.0526316,77.6837838 40.0263158,77.6837838 39.9736842,77.7101351 C39.9210526,77.7364865 39.8421053,77.7628378 39.7368421,77.8418919 C40.6842105,78.0263514 41.5789474,78.0527027 42.3684211,77.8418919 C43.7368421,77.9472973 44.9210526,77.7891892 46.0526316,77.3939189 C46.1578947,77.5256757 46.2368421,77.7101351 46.3947368,77.4466216 C46.4473684,77.3675676 46.5789474,77.3412162 46.6842105,77.3148649 C46.9210526,77.2621622 47.2105263,77.1567568 47.4210526,77.2358108 C47.6578947,77.3148649 47.7368421,77.1040541 47.9210526,77.1040541 C48.2368421,77.1040541 48.5263158,77.0777027 48.8157895,77.025 C48.9736842,76.9986486 49.1315789,76.9195946 49.3157895,76.8668919 C49.1052632,76.7614865 48.8947368,76.7351351 48.7368421,76.7351351 C49.0526316,76.577027 49.3421053,76.4452703 49.6315789,76.3135135 C49.5789474,76.3925676 49.5263158,76.497973 49.4210526,76.497973 L49.7894737,76.497973 C49.7105263,76.497973 49.6052632,76.7351351 49.4736842,76.8932432 C50.4210526,76.6560811 51.2894737,76.4452703 52.1315789,76.2344595 C51.8421053,75.6810811 52.4473684,75.8655405 52.6578947,75.5493243 C52.3947368,75.6283784 52.1315789,75.7074324 51.8684211,75.7601351 C52.7631579,75.3121622 53.6842105,74.9168919 54.5789474,74.5216216 C54.4473684,74.6797297 54.2894737,74.7587838 54.0526316,74.8905405 C54.2105263,74.9168919 54.3157895,74.9168919 54.3947368,74.9432432 C54.8157895,75.075 54.7105263,74.6797297 54.8421053,74.4425676 C55.3421053,74.4425676 55.5526316,74.3635135 55.7894737,74.2844595 C56.0526316,74.2054054 56.3157895,74.1263514 56.5789474,74.0209459 C57,73.8364865 57.3947368,73.5993243 57.8157895,73.3885135 C57.8947368,73.3621622 58.0263158,73.3885135 58.1315789,73.3885135 C58.4210526,73.2040541 58.5263158,73.0459459 58.6052632,73.0722973 C58.9736842,73.125 59.2368421,72.9932432 59.3421053,72.6506757 C59.5263158,72.5189189 59.6578947,72.4135135 59.7894737,72.3344595 C60.3684211,72.0182432 60.9210526,71.702027 61.5,71.3858108 C61.7105263,71.3858108 61.8157895,71.3858108 61.8684211,71.3594595 C62.2105263,71.2013514 62.5263158,71.0168919 62.8421053,70.8324324 C62.7631579,70.8060811 62.5789474,70.7006757 62.5789474,70.7006757 C62.8421053,70.647973 62.9210526,70.6216216 63.0789474,70.5689189 C63.7105263,69.8310811 64.5789474,69.3304054 65.2368421,68.7506757 C65.5263158,68.7243243 65.5263158,68.6452703 65.5263158,68.5925676 C65.6315789,68.4608108 65.7368421,68.3027027 65.8684211,68.1972973 C66.4473684,67.6702703 67.0789474,67.2222973 67.6052632,66.6689189 C68.3684211,65.9047297 69.1052632,65.1141892 69.7894737,64.2972973 C70.4210526,63.5594595 71.0526316,62.8216216 71.5789474,62.0047297 C72.3157895,60.8716216 72.9473684,59.7121622 73.6052632,58.5263514 C74.0789474,57.6831081 74.5,56.8398649 74.9736842,55.9966216 C75.0263158,55.9175676 75.1315789,55.8121622 75.2105263,55.8121622 C75.9210526,55.7331081 76.6315789,55.6804054 77.3157895,55.6013514 C77.4736842,55.575 77.6578947,55.4695946 77.8157895,55.3905405 C77.7368421,55.2587838 77.6842105,55.1006757 77.6052632,54.9689189 C77.5,54.8108108 77.3421053,54.6790541 77.2368421,54.5209459 C77.1315789,54.3891892 77.0526316,54.2310811 76.9736842,54.072973 C76.8947368,53.9412162 76.8157895,53.8358108 76.7368421,53.7040541 C76.5789474,53.4141892 76.4210526,53.1243243 76.2894737,52.8081081 C76.2631579,52.7290541 76.2105263,52.5972973 76.2368421,52.5182432 C76.7105263,51.4905405 76.8947368,50.3837838 77.3421053,49.3560811 C77.7894737,48.302027 77.9210526,47.1162162 78.1315789,45.9831081 C78.3157895,44.9027027 78.4210526,43.8222973 78.5526316,42.7418919 C78.6315789,41.9777027 78.7368421,41.2398649 78.7631579,40.4756757 C78.9210526,39.2635135 78.8684211,38.1304054 78.8421053,36.9972973 C78.8157895,35.9959459 78.7631579,34.9682432 78.7105263,33.9668919 Z M12.6842105,66.4054054 C12.5,66.1945946 12.3421053,65.9574324 12.1578947,65.7466216 L12.2368421,65.6675676 C12.5263158,65.9837838 12.8157895,66.3 13.1052632,66.6425676 C12.9473684,66.5635135 12.7631579,66.5108108 12.6842105,66.4054054 L12.6842105,66.4054054 Z M13.1052632,66.6425676 C13.1842105,66.6162162 13.2631579,66.6162162 13.3421053,66.5898649 C13.4210526,66.7216216 13.4736842,66.8797297 13.5526316,67.0378378 C13.1842105,67.0114865 13,66.8533784 13.1052632,66.6425676 L13.1052632,66.6425676 Z M40.4736842,77.5256757 L40.4736842,77.4466216 C40.9736842,77.3939189 41.4473684,77.3412162 41.9473684,77.2885135 L41.9473684,77.3675676 C41.4473684,77.4466216 40.9736842,77.4993243 40.4736842,77.5256757 L40.4736842,77.5256757 Z M47.1052632,76.8405405 C46.7368421,76.9195946 46.3421053,76.9722973 45.9736842,77.025 C45.8421053,77.0513514 45.6842105,77.1831081 45.6315789,76.9459459 C45.5789474,76.9722973 45.5263158,76.9722973 45.4736842,76.9986486 C45.6052632,77.3939189 45.9210526,77.0777027 46.1842105,77.2358108 C45.6052632,77.3148649 45.0526316,77.3675676 44.5,77.4466216 L44.5,77.3939189 C44.6578947,77.3675676 44.8421053,77.3412162 45,77.3148649 L45,77.2358108 C44.7368421,77.2094595 44.4736842,77.1831081 44.2105263,77.1831081 C44.1315789,77.1831081 44.0263158,77.2885135 43.9473684,77.3148649 C43.8421053,77.3412162 43.7368421,77.3675676 43.6052632,77.3675676 C43.1578947,77.3939189 42.7105263,77.3939189 42.2894737,77.4202703 C42.2631579,77.4202703 42.2105263,77.3939189 42.1842105,77.3939189 L42.1842105,77.3148649 C43.9473684,77.0777027 45.6842105,76.8405405 47.4473684,76.6033784 C47.4736842,76.6560811 47.4736842,76.7087838 47.5,76.7614865 C47.3421053,76.7614865 47.2368421,76.8141892 47.1052632,76.8405405 L47.1052632,76.8405405 Z M47.5,76.577027 C48.1052632,76.497973 48.6578947,76.4452703 49.2368421,76.3662162 C48.0263158,76.7087838 47.6315789,76.7614865 47.5,76.577027 L47.5,76.577027 Z M24.5789474,23.3736486 C25.4210526,22.2141892 26.2894737,21.0547297 27.1315789,19.8689189 C27.3947368,19.5263514 27.6052632,19.1574324 27.8684211,18.8148649 C27.9473684,18.7094595 28.0526316,18.6567568 28.1842105,18.5513514 L28.1578947,18.4986486 C28.2631579,18.3668919 28.3684211,18.2614865 28.4210526,18.1560811 C28.5526316,17.9452703 28.6315789,17.7081081 28.7368421,17.4709459 C28.7631579,17.4182432 28.8421053,17.3655405 28.8421053,17.3655405 C29.2105263,17.55 29.2105263,17.1547297 29.3421053,17.022973 C29.5789474,16.7594595 29.8157895,16.4695946 30.0263158,16.2060811 C30.1842105,15.9952703 30.3421053,15.8108108 30.4736842,15.5736486 C30.5,15.4945946 30.4210526,15.3628378 30.3947368,15.2574324 L30.3157895,15.2574324 C30.3947368,15.2047297 30.4736842,15.1256757 30.5526316,15.072973 C30.5789474,15.072973 30.5789474,15.072973 30.6052632,15.0466216 C30.7631579,14.8094595 30.9210526,14.5722973 31.0789474,14.3614865 C31.3947368,13.9398649 31.7368421,13.5182432 32.1052632,13.1493243 C32.0526316,13.2810811 32,13.4128378 31.9473684,13.5182432 C31.9736842,13.5182432 31.9736842,13.5445946 32,13.5445946 C32.3157895,13.122973 32.6578947,12.7277027 32.9736842,12.3060811 C32.9473684,12.2797297 32.9210526,12.2533784 32.8947368,12.2533784 C32.7631579,12.3851351 32.6578947,12.5168919 32.5263158,12.6486486 C32.5,12.6222973 32.4736842,12.5959459 32.4473684,12.5959459 C32.7105263,12.2533784 32.9736842,11.9108108 33.2368421,11.5155405 C33.2894737,11.5945946 33.3421053,11.7 33.4473684,11.9108108 C33.5526316,11.6472973 33.6578947,11.4628378 33.7368421,11.2783784 C33.6578947,11.3574324 33.5526316,11.4364865 33.4736842,11.5155405 L33.3947368,11.4364865 L33.8684211,10.725 C34.3684211,10.0135135 34.8684211,9.27567568 35.3684211,8.56418919 C35.5526316,8.30067568 35.7894737,8.08986486 35.9473684,7.82635135 C36.4473684,6.825 37.2368421,6.03445946 37.8421053,5.11216216 C37.9736842,4.9277027 38.1578947,4.76959459 38.3157895,4.61148649 C38.4473684,4.45337838 38.5526316,4.50608108 38.6578947,4.63783784 C39.3684211,5.53378378 40.0789474,6.45608108 40.7894737,7.35202703 C41.3157895,8.01081081 41.8421053,8.64324324 42.3421053,9.32837838 C42.9473684,10.1716216 43.5263158,11.0148649 44.1315789,11.8581081 C44.8157895,12.8331081 45.5,13.8081081 46.1578947,14.8094595 C47.1578947,16.2851351 48.1052632,17.7608108 49.1052632,19.2364865 C49.8421053,20.3168919 50.5789474,21.3709459 51.2894737,22.4513514 L49.9473684,22.4513514 C48.7105263,22.425 47.4473684,22.3195946 46.2105263,22.3722973 C44.5263158,22.4513514 42.8157895,22.6358108 41.1315789,22.7675676 C39,22.952027 36.8421053,22.9783784 34.7105263,22.9783784 C33.9473684,22.9783784 33.1842105,23.0837838 32.4210526,23.1364865 C31.5,23.1891892 30.6052632,23.2418919 29.6842105,23.2682432 C28.6052632,23.3209459 27.5526316,23.3472973 26.4736842,23.3736486 C25.8684211,23.4 25.2368421,23.3736486 24.5789474,23.3736486 L24.5789474,23.3736486 Z M54.7631579,35.4952703 L54.7631579,35.7324324 C54.7368421,35.7324324 54.7105263,35.7587838 54.6578947,35.7587838 C54.5526316,35.3898649 54.4473684,34.9945946 54.3157895,34.6256757 C54.0526316,33.8614865 53.7631579,33.0972973 53.2894737,32.4121622 C52.7631579,31.6743243 52.2894737,30.9101351 51.7631579,30.1459459 C51.6315789,29.9614865 51.4473684,29.8033784 51.2894737,29.6452703 C50.7368421,29.0391892 50.1842105,28.4067568 49.4736842,27.9587838 C48.4210526,27.3 47.3421053,26.7466216 46.1842105,26.2722973 C45.8684211,26.1405405 45.5789474,25.9824324 45.2631579,25.797973 L45.8947368,25.797973 L50.3947368,25.7189189 C51.3684211,25.6925676 52.3157895,25.6925676 53.2894737,25.6398649 C53.5263158,25.6398649 53.6578947,25.7189189 53.7894737,25.9297297 C54.0263158,26.325 54.2631579,26.7202703 54.5263158,27.1155405 C54.5526316,27.1682432 54.6052632,27.2472973 54.6052632,27.3263514 C54.6052632,27.9060811 54.6052632,28.5121622 54.6315789,29.0918919 C54.6578947,29.697973 54.7105263,30.2777027 54.7368421,30.8837838 C54.7368421,31.4898649 54.6842105,32.1222973 54.7105263,32.7547297 C54.7368421,33.6506757 54.7631579,34.572973 54.7631579,35.4952703 L54.7631579,35.4952703 Z M26.4473684,26.6675676 C27.6842105,26.6148649 28.8684211,26.5358108 30.0789474,26.4831081 C31.0263158,26.4304054 32,26.4040541 32.9473684,26.3513514 C33.3421053,26.325 33.7105263,26.2986486 34.1052632,26.3513514 C33.6842105,26.5621622 33.2631579,26.772973 32.8947368,27.0364865 C32.4210526,27.3527027 31.9736842,27.7743243 31.5,28.1168919 C31.0263158,28.4594595 30.6052632,28.8810811 30.2105263,29.3290541 C29.7105263,29.9351351 29.1578947,30.4621622 28.6315789,31.0418919 C28.2631579,31.4635135 27.8421053,31.8587838 27.5263158,32.3067568 C27.0789474,32.8864865 26.6842105,33.5189189 26.2631579,34.1777027 C26.3947368,31.6743243 26.5526316,29.1972973 26.4473684,26.6675676 L26.4473684,26.6675676 Z M43.6315789,52.0175676 C42.7894737,52.2283784 41.9210526,52.4655405 41.0526316,52.5709459 C40.3157895,52.6763514 39.5526316,52.65 38.7894737,52.65 C38.1052632,52.65 37.4473684,52.6236486 36.7631579,52.5709459 C36,52.4918919 35.2368421,52.4128378 34.5,52.0702703 C33.8684211,51.7804054 33.2105263,51.5168919 32.5789474,51.2006757 C31.9473684,50.8844595 31.3157895,50.5155405 30.8421053,49.9358108 C30.5,49.5141892 30.0263158,49.1716216 29.6052632,48.8027027 C29.6842105,49.1189189 29.8684211,49.3824324 30.1578947,49.5668919 C30.0263158,49.725 29.8421053,49.6459459 29.5789474,49.2243243 C29.5,49.277027 29.4210526,49.3033784 29.3684211,49.3297297 C29.4473684,49.1452703 29.5263158,48.9608108 29.6052632,48.8027027 C29.5,48.5918919 29.3684211,48.3547297 29.2631579,48.1439189 C29.0526316,47.8013514 28.8421053,47.4324324 28.6578947,47.0898649 C28.6052632,47.0108108 28.6052632,46.9317568 28.5526316,46.8527027 C28.4210526,46.6945946 28.2894737,46.5364865 28.1842105,46.3783784 C27.9736842,46.0621622 27.7894737,45.7195946 27.5263158,45.4033784 C27.5263158,45.4824324 27.5526316,45.5614865 27.5526316,45.6668919 C27.5263158,45.6668919 27.5,45.6932432 27.5,45.6932432 L26.9473684,44.3493243 C26.9210526,44.3493243 26.9210526,44.3493243 26.8947368,44.3756757 L27.3684211,46.1148649 C27.3421053,46.1148649 27.3157895,46.1412162 27.2894737,46.1412162 C27.2105263,46.0358108 27.1315789,45.9304054 27.0789474,45.7986486 C27.0263158,45.5878378 26.8684211,45.5878378 26.7368421,45.6668919 C26.6578947,45.7195946 26.6052632,45.9040541 26.6315789,45.9831081 C26.8157895,46.4310811 27.0263158,46.8790541 27.2368421,47.327027 C27.2894737,47.4851351 27.3421053,47.6168919 27.4210526,47.775 C27.4473684,47.8277027 27.5263158,47.8804054 27.5263158,47.9594595 C27.6315789,48.1702703 27.7105263,48.3810811 27.8421053,48.5655405 C28.0789474,48.8817568 28.3421053,49.197973 28.5789474,49.5141892 C28.8157895,49.8304054 29.0263158,50.172973 29.2368421,50.4891892 C29.2631579,50.5418919 29.3421053,50.5418919 29.3684211,50.5682432 C29.5,50.9635135 29.9473684,51.2533784 30.2631579,51.0952703 C30.3421053,51.7013514 31,51.9121622 31.2631579,52.4918919 C30.9473684,52.3601351 30.7105263,52.2547297 30.5,52.1493243 C30.4736842,52.1756757 30.4736842,52.202027 30.4473684,52.2547297 C30.7631579,52.4128378 31.0789474,52.5709459 31.3684211,52.7554054 C31.6315789,52.9135135 31.8947368,53.0716216 32.1315789,53.2560811 C32.4473684,53.5459459 32.8157895,53.7040541 33.2631579,53.8094595 C33.2368421,53.7304054 33.2105263,53.7040541 33.2105263,53.7040541 C33.9473684,54.0466216 34.7105263,54.4155405 35.2894737,54.7054054 C32.5526316,54.7581081 29.6315789,54.8108108 26.6052632,54.8635135 C26.6052632,54.3628378 26.5789474,53.8885135 26.5789474,53.3878378 C26.5789474,53.177027 26.6315789,52.9925676 26.6052632,52.7817568 C26.5263158,51.5695946 26.5263158,50.3574324 26.3684211,49.1716216 C26.2105263,47.9067568 26.2105263,46.6682432 26.2368421,45.4033784 C26.2631579,44.7182432 26.2105263,44.0067568 26.1842105,43.3216216 C26.1842105,42.3993243 26.1842105,41.5033784 26.2105263,40.5810811 C26.2105263,40.4493243 26.2631579,40.3439189 26.3157895,40.2121622 L26.3947368,40.2121622 C26.4210526,40.2648649 26.3947368,40.3439189 26.4473684,40.3702703 C26.5263158,40.4493243 26.6578947,40.5810811 26.7105263,40.5547297 C26.8684211,40.4493243 27.1052632,40.3439189 27.1578947,40.1858108 C27.2894737,39.8695946 27.3421053,39.527027 27.3421053,39.2108108 C27.3421053,38.9736486 27.4473684,38.8155405 27.5526316,38.6574324 C27.6052632,38.5783784 27.6315789,38.4993243 27.6842105,38.3939189 C27.5789474,38.3148649 27.4736842,38.2621622 27.3421053,38.1567568 C27.4473684,37.8668919 27.4210526,37.5243243 27.8157895,37.3662162 C27.8684211,37.3398649 27.8684211,37.2081081 27.8947368,37.1290541 C27.9210526,36.9182432 27.9473684,36.6810811 27.9736842,36.4702703 C28.0263158,36.5493243 28.0526316,36.5756757 28.1052632,36.6283784 C28.1315789,36.5756757 28.1578947,36.5493243 28.1578947,36.5493243 C28.1578947,36.4439189 28.1315789,36.2331081 28.1578947,36.2331081 C28.4736842,36.1804054 28.3421053,35.8378378 28.5,35.6797297 C28.5263158,35.6533784 28.4736842,35.5743243 28.4736842,35.5216216 C28.4736842,35.4689189 28.4736842,35.3898649 28.5,35.3898649 C28.8684211,35.3108108 28.8157895,34.9155405 29.0526316,34.7310811 C29.1315789,34.6783784 29.1578947,34.5993243 29.2631579,34.4675676 C29.4736842,34.8364865 29.1052632,35.0209459 29.0789474,35.2844595 C29.5263158,35.0209459 29.6578947,34.3885135 29.3947368,34.2040541 C29.5,34.125 29.6052632,34.0195946 29.6842105,33.9141892 C29.9736842,33.597973 30.2894737,33.3081081 30.5526316,32.9918919 C30.7368421,32.7547297 30.8421053,32.4648649 31.0263158,32.2277027 C31.1315789,32.0959459 31.3421053,31.9905405 31.5,31.9114865 C31.9736842,31.647973 32.4210526,31.3581081 32.7105263,30.9101351 C32.7631579,30.8574324 32.8421053,30.8047297 32.9210526,30.752027 C33,30.6993243 33.1578947,30.6993243 33.1842105,30.6202703 C33.2105263,30.5675676 33.1315789,30.4358108 33.0789474,30.3567568 C33.1842105,30.3040541 33.2894737,30.1986486 33.5,30.0932432 C33.4210526,30.2513514 33.3947368,30.3567568 33.3421053,30.4621622 L33.4736842,30.5939189 C33.7105263,30.4094595 34.0789474,30.1986486 34.3157895,30.0405405 C34.3157895,30.0141892 34.1842105,29.9087838 34.1842105,29.9087838 C34.0263158,29.9878378 33.7894737,30.1195946 33.5526316,30.225 C33.6052632,30.1459459 33.6052632,30.0932432 33.6315789,30.0668919 C34,29.8297297 34.3684211,29.5925676 34.7631579,29.4081081 C35.6842105,28.9864865 36.6052632,28.5648649 37.5263158,28.1695946 C37.6842105,28.0905405 37.8947368,28.1432432 38.0789474,28.1432432 C38.1578947,28.1432432 38.2105263,28.1432432 38.2894737,28.1168919 C38.7105263,27.9851351 39.1315789,27.8533784 39.5526316,27.747973 C39.7368421,27.6952703 39.9473684,27.6689189 40.1315789,27.6689189 C40.9210526,27.6952703 41.7105263,27.6952703 42.5,27.747973 C42.8421053,27.7743243 43.1578947,27.8533784 43.4736842,27.9587838 C43.8684211,28.0905405 44.2894737,28.275 44.6578947,28.4594595 C45.1052632,28.6966216 45.5263158,28.9601351 45.9473684,29.25 C46.7105263,29.7506757 47.4210526,30.3040541 48.1842105,30.752027 C48.9210526,31.2 49.5,31.8060811 49.9736842,32.4912162 C50.5526316,33.3081081 51.2105263,34.0459459 51.4736842,35.0472973 L51.8684211,36.7864865 C51.9473684,37.1027027 52.1315789,37.4189189 52.0526316,37.7878378 C51.9210526,38.4466216 51.8157895,39.1317568 51.7105263,39.7905405 C51.6578947,40.0540541 51.6052632,40.3175676 51.6315789,40.5810811 C51.6842105,41.397973 51.3684211,42.1094595 51.0526316,42.8472973 C50.9473684,43.0844595 50.7894737,43.3216216 50.6578947,43.5851351 C50.6842105,43.6114865 50.8421053,43.6905405 50.8684211,43.6905405 L51.1052632,43.2162162 C51.1315789,43.2162162 51.1315789,43.2162162 51.1578947,43.2425676 C51.0263158,43.6114865 50.9210526,44.0067568 50.7894737,44.3756757 C50.4736842,45.1925676 50.1578947,46.0358108 49.7631579,46.8263514 C49.5526316,47.2743243 49.1842105,47.6432432 48.9210526,48.0648649 C48.6578947,48.4337838 48.4473684,48.8290541 48.1842105,49.1716216 C47.9473684,49.4614865 47.7105263,49.7513514 47.3947368,49.9621622 C46.6842105,50.4891892 45.9473684,51.0162162 45.1842105,51.4378378 C44.7105263,51.7277027 44.1578947,51.8858108 43.6315789,52.0175676 L43.6315789,52.0175676 Z M29.6052632,50.6209459 L29.5789474,50.6472973 C29.5263158,50.6209459 29.4473684,50.5945946 29.3947368,50.5418919 L28.7631579,49.5932432 C28.7105263,49.5141892 28.6842105,49.4351351 28.7105263,49.3297297 C29,49.7777027 29.2894737,50.1993243 29.6052632,50.6209459 L29.6052632,50.6209459 Z M45.9736842,54.2310811 C47.1578947,53.7304054 48.1315789,53.0189189 49.0263158,52.202027 C49.1578947,52.0702703 49.2894737,51.9385135 49.4473684,51.8331081 C50.5526316,51.147973 51.3684211,50.1993243 52.1052632,49.1452703 C52.9473684,47.9331081 53.5,46.5628378 54.1842105,45.2716216 C54.2368421,45.1662162 54.2894737,45.0608108 54.3421053,44.9817568 C54.2894737,47.9858108 54.6315789,50.9371622 55.0263158,53.9148649 C52.0526316,54.0202703 49.0263158,54.1256757 45.9736842,54.2310811 L45.9736842,54.2310811 Z M72.6578947,53.4405405 C72.6315789,53.4932432 72.5789474,53.5459459 72.5526316,53.5986486 C72.5263158,53.5459459 72.5263158,53.4668919 72.5,53.3614865 C72.3421053,53.7831081 72,53.5722973 71.7631579,53.5722973 C70.3421053,53.5986486 68.8947368,53.5986486 67.4736842,53.5986486 C66.1052632,53.5986486 64.7105263,53.5986486 63.3421053,53.625 C62.8947368,53.625 62.4210526,53.7304054 61.9736842,53.7567568 C60.8947368,53.8094595 59.8157895,53.8358108 58.7368421,53.8621622 C58.6578947,53.8621622 58.5789474,53.7304054 58.4473684,53.625 C58.4210526,53.6777027 58.3684211,53.7567568 58.2894737,53.8621622 C58.2631579,53.8094595 58.2105263,53.7567568 58.1578947,53.6777027 C58.1315789,53.7567568 58.1052632,53.8358108 58.0789474,53.8885135 L58,53.8885135 C57.9473684,53.5195946 57.8421053,53.177027 57.8421053,52.8081081 C57.8421053,52.0175676 57.9210526,51.227027 57.9473684,50.4364865 C57.9736842,50.0675676 57.9473684,49.725 57.9473684,49.3824324 C58.0526316,49.4614865 58.1315789,49.5141892 58.2368421,49.5932432 C58.2894737,49.4878378 58.3421053,49.4087838 58.3947368,49.3297297 C58.3947368,49.3297297 58.3421053,49.3033784 58.2894737,49.2506757 C58.3421053,49.2243243 58.3947368,49.1716216 58.3947368,49.1452703 C58.4210526,49.0662162 58.4736842,48.9871622 58.4736842,48.9344595 C58.4736842,48.75 58.4210526,48.5918919 58.3947368,48.4337838 C58.4210526,48.4337838 58.4473684,48.4337838 58.4736842,48.4074324 L58.6315789,49.197973 L58.7105263,49.197973 C58.6052632,49.0135135 58.9473684,48.8554054 58.6578947,48.6445946 C58.6315789,48.6182432 58.6842105,48.4601351 58.6842105,48.3810811 C58.6052632,48.222973 58.5526316,48.0648649 58.4736842,47.8540541 C58.5,47.8277027 58.5789474,47.8013514 58.6578947,47.775 C58.5526316,47.7222973 58.4736842,47.6695946 58.3947368,47.6432432 C58.6578947,47.4060811 58.6578947,47.2743243 58.4210526,47.0108108 C58.4736842,46.9844595 58.5263158,46.9844595 58.5263158,46.9581081 C58.5263158,46.7209459 58.5263158,46.4837838 58.4736842,46.2466216 C58.4210526,45.9831081 58.5526316,45.6668919 58.1578947,45.5087838 C58.1842105,45.5878378 58.2105263,45.6405405 58.2631579,45.7195946 C58.2631579,45.7195946 58.1842105,45.7459459 58.1052632,45.7986486 C57.7631579,45.4824324 57.9736842,45.0608108 57.8947368,44.5864865 C58.0789474,44.6391892 58.2105263,44.6918919 58.3421053,44.7445946 C58.2894737,44.5601351 58.1578947,44.3493243 58.0789474,44.1121622 L57.9736842,44.1121622 L57.9736842,42.372973 C57.9736842,42.3993243 58.1578947,42.3993243 58.2631579,42.4256757 C58.2631579,42.3993243 58.2894737,42.372973 58.2894737,42.3466216 C58.2105263,42.2412162 58.1052632,42.1358108 58,42.0040541 L58.0526316,41.9513514 C57.8421053,41.6878378 57.9473684,41.3189189 57.9473684,41.2398649 L57.9473684,39.3952703 C58.2105263,39.6587838 57.8157895,40.0013514 58.2105263,40.1594595 L58.2105263,39.8959459 L58.1842105,39.8959459 C58.1578947,39.5006757 58.1578947,39.1054054 58.1315789,38.7101351 L58.0789474,38.7101351 C58.0526316,38.7628378 58.0526316,38.7891892 58.0263158,38.8418919 L57.9736842,38.8418919 C58.0263158,36.7601351 58.0789474,34.6783784 58.1315789,32.5439189 C58.3947368,32.8864865 58.6842105,33.2027027 58.8684211,33.5452703 C59.4736842,34.652027 60.2631579,35.6006757 61,36.602027 C61.6315789,37.4716216 62.2105263,38.4202703 62.7894737,39.3162162 C63.5,40.3966216 64.1842105,41.477027 64.8947368,42.5574324 C65.4210526,43.3743243 65.9736842,44.1912162 66.5263158,44.9817568 C67.0263158,45.6932432 67.5526316,46.3783784 68.0789474,47.0635135 C68.5263158,47.6695946 69,48.2756757 69.4473684,48.8817568 C69.9736842,49.6195946 70.5,50.3574324 71.0263158,51.0689189 C71.2894737,51.4378378 71.5789474,51.8067568 71.8684211,52.1756757 C72.0263158,52.3864865 72.2631579,52.5445946 72.4210526,52.6763514 C72.3947368,52.6763514 72.3684211,52.6763514 72.3157895,52.65 C72.3947368,52.7554054 72.4473684,52.8344595 72.5,52.8871622 C72.7894737,53.0452703 72.8157895,53.2033784 72.6578947,53.4405405 L72.6578947,53.4405405 Z M74,46.8527027 L74,46.6682432 C74,46.7209459 74.0263158,46.8 74,46.8527027 L74,46.8527027 Z M74.8947368,35.2317568 C74.8684211,35.2317568 74.7105263,35.0736486 74.6842105,35.0472973 C74.6578947,35.1263514 74.6842105,35.2054054 74.6315789,35.3108108 C74.6052632,35.2317568 74.4210526,35.2581081 74.4210526,35.1790541 C74.3947368,35.547973 74.5789474,35.9168919 74.5526316,36.2858108 C74.6315789,36.2331081 74.9473684,36.2067568 75.0263158,36.1277027 C75.0526316,36.1540541 75.1052632,36.1804054 75.1315789,36.1804054 C74.6052632,36.5756757 74.7368421,36.9709459 74.9736842,37.4189189 C75.0263158,37.5243243 75.1842105,37.7351351 75.0263158,37.9459459 C74.9736842,37.9986486 75.0526316,38.1567568 75.0789474,38.2885135 L75.1578947,38.2885135 L75.1578947,38.3412162 L74.9210526,38.4202703 C74.8684211,38.3412162 74.5526316,38.1831081 74.5526316,38.0513514 L74.5526316,39.3952703 C74.8157895,39.4743243 74.8157895,39.8432432 74.9210526,40.0277027 C74.9736842,39.9486486 75,39.8959459 75.0263158,39.8168919 L75.0526316,39.8432432 C75.0263158,40.0013514 75,40.1594595 74.9473684,40.3175676 C74.8947368,40.5547297 74.8421053,40.7655405 74.8157895,41.0027027 C74.8157895,41.0290541 74.8684211,41.0817568 74.8684211,41.1081081 C74.5789474,41.7668919 74.7368421,42.5047297 74.6315789,43.1898649 C74.5526316,43.6905405 74.6315789,44.2175676 74.5789474,44.7445946 C74.5263158,45.1925676 74.4210526,45.6668919 74.3157895,46.1148649 C74.2894737,46.1939189 74.2368421,46.2202703 74.1052632,46.272973 C74.1578947,45.9567568 74.1315789,45.7459459 74.0789474,45.4560811 C74.0526316,45.4560811 73.7105263,45.2716216 73.6842105,45.2716216 C73.6842105,45.6405405 73.8947368,46.1412162 73.9736842,46.5628378 C73.8947368,46.5364865 73.5789474,46.352027 73.5526316,46.352027 C73.5,46.6682432 73.5,47.0898649 73.4736842,47.4324324 C73.4473684,47.6959459 73.2105263,47.9331081 73.1842105,48.222973 C73.1842105,48.3810811 73.3684211,48.4864865 73.3421053,48.75 L73.5526316,48.75 C73.5526316,48.222973 73.7894737,47.7486486 73.7894737,47.1952703 L73.8684211,47.1952703 C73.8947368,47.247973 73.9736842,47.3006757 73.9473684,47.327027 C73.8947368,47.6168919 73.7894737,47.9331081 73.8157895,48.222973 C73.8157895,48.3810811 73.9473684,48.5391892 73.8947368,48.7236486 C73.8421053,48.8817568 73.8157895,49.0398649 73.7894737,49.277027 C73.7631579,49.1452703 73.7368421,49.0925676 73.7368421,49.0135135 C73.7105263,49.0135135 73.4736842,48.9871622 73.4473684,48.9871622 C73.4210526,49.1452703 73.6315789,49.3033784 73.6052632,49.4351351 C73.5789474,49.4614865 73.5526316,49.4614865 73.5,49.4878378 L72.6315789,48.222973 C71.9473684,47.2216216 71.2631579,46.2202703 70.5789474,45.1925676 C70.3947368,44.9290541 70.2368421,44.6655405 70.1052632,44.402027 C69.2894737,43.0054054 68.3947368,41.6614865 67.3947368,40.3702703 C66.6315789,39.3952703 66.0263158,38.3412162 65.3157895,37.3135135 C64.6578947,36.3385135 64,35.3898649 63.3421053,34.4148649 C63.1052632,34.0986486 62.8157895,33.8087838 62.6052632,33.4662162 C61.9210526,32.3858108 61.3157895,31.2790541 60.6315789,30.1986486 C60.0526316,29.3027027 59.4210526,28.4331081 58.8157895,27.5635135 C58.6052632,27.2736486 58.3947368,26.9574324 58.1842105,26.6412162 C58.1578947,26.5885135 58.1315789,26.5358108 58.1315789,26.4567568 C58.0789474,25.877027 58.0263158,25.2972973 58,24.7439189 C58,24.2168919 58.0526316,23.6898649 58.0526316,23.1364865 L58.0526316,22.6621622 C58.0526316,22.5304054 58.0789474,22.425 58.0789474,22.2932432 C58.1052632,22.2668919 58.1315789,22.2141892 58.1578947,22.1878378 C57.3947368,22.1878378 56.6052632,22.1614865 55.8421053,22.1878378 C55.3421053,22.2141892 55.0789474,22.0033784 54.7368421,21.6344595 C53.7368421,20.5013514 53,19.2101351 52.1315789,17.997973 C51.3157895,16.8385135 50.4736842,15.7054054 49.6315789,14.5722973 C48.9473684,13.65 48.2631579,12.7540541 47.5789474,11.8317568 C46.8157895,10.7777027 46.0789474,9.72364865 45.2894737,8.66959459 C44.3421053,7.40472973 43.3684211,6.13986486 42.3947368,4.875 C41.9473684,4.29527027 41.4473684,3.74189189 40.9473684,3.13581081 C41.2894737,3.18851351 41.6052632,3.24121622 41.9210526,3.26756757 L43.1842105,3.34662162 C44.1315789,3.42567568 45.0789474,3.47837838 46.0263158,3.61013514 C46.8157895,3.71554054 47.6052632,3.87364865 48.4210526,4.00540541 C50.1578947,4.29527027 51.8684211,4.76959459 53.5263158,5.32297297 C54.5,5.63918919 55.4473684,6.06081081 56.3947368,6.45608108 C58.5263158,7.32567568 60.5526316,8.37972973 62.5526316,9.48648649 C63.1842105,9.82905405 63.5526316,10.3824324 64.0263158,10.8831081 C64.7105263,11.5945946 65.3947368,12.3060811 66.0526316,13.0439189 C66.8157895,13.9135135 67.5263158,14.8094595 68.2631579,15.7054054 C68.9210526,16.4959459 69.6052632,17.2864865 70.2631579,18.077027 C70.4736842,18.3141892 70.6315789,18.6040541 70.8157895,18.8675676 C71.2368421,19.5 71.7105263,20.1060811 72.0789474,20.7912162 C72.3421053,21.2918919 72.5,21.8716216 72.6842105,22.425 C72.9473684,23.2418919 73.2105263,24.0324324 73.4736842,24.8493243 C73.6578947,25.4554054 73.8157895,26.0878378 73.9473684,26.7202703 C74.0526316,27.1418919 74.0263158,27.5898649 74.1578947,28.0114865 C74.3157895,28.5648649 74.1578947,29.1709459 74.3157895,29.7243243 C74.3421053,29.777027 74.3684211,29.8560811 74.3947368,29.9087838 C74.5,30.0141892 74.5789474,30.1195946 74.4210526,30.2777027 C74.3947368,30.3040541 74.3947368,30.4094595 74.4210526,30.4885135 C74.4736842,30.4358108 74.5,30.3831081 74.5526316,30.3040541 C74.5526316,30.3567568 74.5789474,30.3831081 74.5789474,30.4094595 C74.5789474,30.5148649 74.5526316,30.6202703 74.5789474,30.7256757 C74.5789474,30.7783784 74.6315789,30.8574324 74.6578947,30.9101351 C74.7105263,30.8574324 74.7631579,30.8310811 74.8684211,30.752027 C75.1052632,31.647973 75.1315789,32.5439189 75.1315789,33.4662162 C75.1315789,34.3358108 75.2894737,35.2054054 74.9210526,36.0486486 C75,35.7587838 74.8157895,35.4952703 74.8947368,35.2317568 L74.8947368,35.2317568 Z" id="Shape" fill="#DD3A0A"></path>
                    <path d="M58.0789474,45.4824324 C58.1052632,45.4824324 58.1315789,45.5087838 58.1315789,45.5087838 L58.1052632,45.4824324 C58.1052632,45.4560811 58.1052632,45.4560811 58.0789474,45.4824324 L58.0789474,45.4824324 Z M62.2368421,71.5175676 C61.9473684,71.7283784 61.6578947,71.9128378 61.2894737,71.9918919 C61.2631579,71.9655405 61.2631579,71.9391892 61.2368421,71.9128378 C61.5263158,71.7283784 61.8421053,71.5439189 62.1315789,71.3594595 C62.1578947,71.4121622 62.2105263,71.4648649 62.2368421,71.5175676 L62.2368421,71.5175676 Z M12.8947368,35.8114865 C13.1842105,35.4425676 13.4736842,35.0736486 13.7894737,34.7047297 C13.8157895,34.7310811 14.0263158,34.7837838 14.0526316,34.8101351 C13.7631579,35.1790541 13.3684211,35.6797297 13.0789474,36.075 C13.0263158,36.0222973 12.9473684,35.8378378 12.8947368,35.8114865 L12.8947368,35.8114865 Z M5.42105263,48.7236486 C5.21052632,48.2756757 5,47.8013514 4.78947368,47.3533784 C4.81578947,47.327027 5,47.247973 5.02631579,47.247973 C5.31578947,47.6695946 5.44736842,48.1702703 5.65789474,48.6182432 C5.65789474,48.6182432 5.44736842,48.7236486 5.42105263,48.7236486 L5.42105263,48.7236486 Z M12.1315789,36.075 C11.9736842,36.3121622 11.8157895,36.5756757 11.6578947,36.8128378 C11.6315789,36.7864865 11.3421053,36.9182432 11.3157895,36.8918919 C11.4736842,36.6547297 11.8684211,36.2331081 12.0263158,35.9959459 C12.0526316,36.0222973 12.0789474,36.0486486 12.1315789,36.075 L12.1315789,36.075 Z M59.4210526,72.597973 C59.4473684,72.597973 59.4473684,72.5716216 59.4736842,72.5716216 C59.6578947,72.597973 59.8684211,72.6243243 60.0789474,72.6243243 C59.7368421,72.8614865 59.5263158,72.8351351 59.4210526,72.597973 L59.4210526,72.597973 Z M12.1842105,37.1817568 C12.2105263,37.1027027 12.2631579,37.0236486 12.3157895,36.9445946 C12.3684211,36.9445946 12.4473684,36.9182432 12.4473684,36.9182432 C12.5526316,36.7337838 12.5526316,36.602027 12.6578947,36.4439189 C12.6315789,36.4175676 12.6052632,36.4175676 12.5789474,36.3912162 C12.4210526,36.4966216 12.2631579,36.6283784 12.1052632,36.7337838 C12.1578947,36.7864865 12.1578947,36.8128378 12.1578947,36.8655405 C11.9473684,36.8391892 11.8684211,36.9445946 11.7631579,37.2344595 C11.7368421,37.3135135 11.6052632,37.3398649 11.4736842,37.4452703 C11.4473684,37.497973 11.4210526,37.6297297 11.3684211,37.7614865 L11.3947368,37.7878378 C11.3421053,37.8405405 11.2631579,37.8668919 11.2631579,37.8668919 C11.1052632,38.025 10.9210526,38.1567568 10.7631579,38.3148649 C10.7368421,38.3939189 10.7105263,38.472973 10.7105263,38.552027 C10.8947368,38.3675676 11.2105263,38.025 11.4473684,37.8141892 L11.4736842,37.8405405 C11.5789474,37.6824324 11.6578947,37.5243243 11.7631579,37.3662162 C11.7894737,37.3925676 11.7894737,37.4189189 11.8157895,37.4452703 C11.7368421,37.6560811 11.6578947,37.8932432 11.5789474,38.1040541 C11.5263158,38.1304054 11.4473684,38.1831081 11.4473684,38.1567568 C11.3421053,38.2358108 11.2631579,38.3412162 11.1578947,38.4202703 L10.6842105,38.7364865 C10.4210526,38.9736486 10.1578947,39.1844595 9.86842105,39.4216216 C9.68421053,39.7114865 9.5,39.975 9.28947368,40.3175676 C9.60526316,40.2385135 9.68421053,40.3702703 9.65789474,40.6337838 C10.0263158,40.6864865 10.0526316,40.3966216 10.1578947,40.1858108 C10.1842105,40.1331081 10.2105263,40.0277027 10.2631579,40.0013514 C10.5,39.7905405 10.7631579,39.6060811 11.0263158,39.3952703 C11.0789474,39.3425676 11.0789474,39.2371622 11.0789474,39.1581081 C11.0789474,39.1317568 10.9473684,39.1317568 10.8684211,39.1054054 C11.1052632,38.8418919 11.4473684,38.3939189 11.6842105,38.1040541 C11.8157895,38.025 11.9473684,37.9195946 11.9473684,37.8405405 C11.9210526,37.5506757 12.1052632,37.4716216 12.3157895,37.3662162 C12.2105263,37.2871622 12.1842105,37.2081081 12.1842105,37.1817568 L12.1842105,37.1817568 Z" id="Shape" fill="#DD3735"></path>
                    <path d="M12.7105263,36.8918919 C12.6052632,37.0763514 12.5,37.2344595 12.3947368,37.4189189 L12.2368421,37.3398649 C12.1315789,37.9459459 11.7631579,38.472973 11.3947368,38.5783784 C11.5,38.6310811 11.6052632,38.6837838 11.6842105,38.6574324 C11.7631579,38.6310811 11.8157895,38.4993243 11.8684211,38.4202703 L12.5789474,37.3925676 L12.8157895,36.9972973 L12.7105263,36.8918919 L12.7105263,36.8918919 Z M3.94736842,48.4601351 C4.07894737,48.4601351 4.21052632,48.4864865 4.36842105,48.4864865 C4.36842105,48.3810811 4.5,48.4074324 4.5,48.302027 L4.57894737,48.302027 C4.57894737,48.4337838 4.60526316,48.5391892 4.60526316,48.6709459 L4.05263158,48.6709459 C4.02631579,48.6445946 3.92105263,48.4864865 3.94736842,48.4601351 L3.94736842,48.4601351 Z M3.73684211,47.247973 C3.65789474,47.1689189 3.52631579,47.0898649 3.52631579,47.0108108 C3.5,46.9054054 3.57894737,46.7736486 3.65789474,46.6418919 C3.71052632,46.8263514 3.73684211,46.9844595 3.78947368,47.1689189 C3.76315789,47.1952703 3.73684211,47.2216216 3.73684211,47.247973 L3.73684211,47.247973 Z M4.39473684,45.5614865 C4.5,45.825 4.60526316,46.1148649 4.71052632,46.3783784 C4.68421053,46.3783784 4.52631579,46.4574324 4.5,46.4837838 C4.39473684,46.2202703 4.26315789,45.9304054 4.15789474,45.6668919 C4.18421053,45.6405405 4.34210526,45.5614865 4.39473684,45.5614865 L4.39473684,45.5614865 Z M62.9736842,70.7533784 C63.1052632,70.7006757 63.2631579,70.6743243 63.4736842,70.6216216 C63.2368421,70.8060811 63.0526316,70.9378378 62.8947368,71.0959459 C62.8684211,71.0695946 62.8421053,71.0432432 62.8157895,71.0432432 C62.8684211,70.9378378 62.9210526,70.8587838 62.9736842,70.7533784 L62.9736842,70.7533784 Z M30.6315789,15.072973 C30.7894737,14.9675676 30.9210526,14.8885135 31.0789474,14.7831081 L31.1315789,14.8358108 C30.9736842,15.0466216 30.8421053,15.2574324 30.6578947,15.5209459 C30.6315789,15.3364865 30.6315789,15.2310811 30.6052632,15.0993243 C30.5789474,15.0993243 30.6052632,15.0993243 30.6315789,15.072973 L30.6315789,15.072973 Z M38.3421053,28.4067568 C38.5789474,28.3013514 38.8157895,28.1959459 39.1052632,28.0641892 C39.0789474,28.2222973 39.0789474,28.3277027 39.0789474,28.4331081 C39,28.4067568 38.8947368,28.3804054 38.8157895,28.3804054 C38.6578947,28.4067568 38.3684211,28.6175676 38.2368421,28.6439189 C38.2105263,28.6439189 38.3421053,28.4331081 38.3421053,28.4067568 L38.3421053,28.4067568 Z M58.0789474,50.7527027 C58.1315789,51.0162162 58.6315789,51.147973 58.1315789,51.4114865 C58.2105263,51.4641892 58.2894737,51.4905405 58.3684211,51.5432432 C58.3684211,51.5695946 58.3421053,51.6222973 58.3157895,51.6486486 C58.2631579,51.675 58.1578947,51.7277027 58.1052632,51.7013514 C58.0789474,51.7013514 58.0263158,51.5959459 58.0263158,51.5432432 C58.0263158,51.3060811 58.0526316,51.0689189 58.0789474,50.7527027 L58.0789474,50.7527027 Z" id="Shape" fill="#DD3735"></path>
                </g>
            </g>
        </g>
    </g>
</svg>