<svg width="157" height="33" viewBox="0 0 157 33" xmlns="http://www.w3.org/2000/svg"><title>postcss-logo-type</title><g fill="none" fill-rule="evenodd"><path d="M132.293 23.847l3.46-.786c1.39 4.178 4.41 6.267 9.05 6.267 2.426 0 4.253-.513 5.48-1.538 1.23-1.027 1.843-2.4 1.843-4.123 0-1.303-.468-2.35-1.404-3.145-.936-.793-2.018-1.34-3.245-1.64l-6.132-1.527c-1.588-.404-2.887-.894-3.897-1.47-1.01-.577-1.868-1.464-2.572-2.662s-1.056-2.568-1.056-4.11c0-2.56.966-4.6 2.898-6.12 1.93-1.52 4.41-2.28 7.434-2.28 5.57 0 9.232 2.522 10.984 7.568l-3.482 1.034c-.404-1.796-1.355-3.155-2.852-4.076-1.498-.92-3.092-1.382-4.784-1.382-1.678 0-3.17.442-4.48 1.326-1.312.883-1.967 2.133-1.967 3.75 0 2.262 1.663 3.79 4.988 4.583l5.727 1.37c5.24 1.258 7.86 4.08 7.86 8.468 0 2.65-.983 4.855-2.952 6.614-1.97 1.76-4.743 2.64-8.322 2.64-6.348 0-10.54-2.92-12.577-8.76zm-26.08 0l3.46-.786c1.392 4.178 4.41 6.267 9.05 6.267 2.427 0 4.254-.513 5.482-1.538 1.228-1.027 1.84-2.4 1.84-4.123 0-1.303-.466-2.35-1.402-3.145-.936-.793-2.018-1.34-3.246-1.64l-6.132-1.527c-1.587-.404-2.886-.894-3.897-1.47-1.01-.577-1.868-1.464-2.572-2.662-.703-1.198-1.055-2.568-1.055-4.11 0-2.56.967-4.6 2.898-6.12 1.932-1.52 4.41-2.28 7.435-2.28 5.57 0 9.23 2.522 10.983 7.568l-3.48 1.034c-.405-1.796-1.356-3.155-2.854-4.076-1.497-.92-3.092-1.382-4.784-1.382-1.677 0-3.17.442-4.48 1.326-1.31.883-1.966 2.133-1.966 3.75 0 2.262 1.662 3.79 4.986 4.583l5.728 1.37c5.24 1.258 7.86 4.08 7.86 8.468 0 2.65-.984 4.855-2.953 6.614-1.97 1.76-4.743 2.64-8.32 2.64-6.35 0-10.543-2.92-12.58-8.76zm-5.486-2.157l3.504.787c-1.676 6.753-5.465 10.13-11.364 10.13-3.88 0-6.922-1.565-9.13-4.695-2.21-3.13-3.314-6.978-3.314-11.545 0-4.717 1.153-8.505 3.46-11.365 2.305-2.86 5.397-4.29 9.276-4.29 5.75 0 9.44 3.287 11.073 9.86l-3.615.72c-1.318-4.883-3.81-7.323-7.48-7.323-2.71 0-4.81 1.133-6.3 3.402-1.49 2.268-2.235 5.454-2.235 9.557 0 3.757.764 6.77 2.29 9.04 1.528 2.268 3.55 3.402 6.066 3.402 3.908 0 6.498-2.56 7.77-7.682z" fill="#3F526B"/><path d="M4.682 32H.842V1.34h10.87c3.4 0 5.907.925 7.524 2.775 1.618 1.85 2.426 3.957 2.426 6.322 0 2.636-.88 4.815-2.64 6.537-1.758 1.722-4.06 2.583-6.906 2.583H4.682V32zm0-15.633h7.052c1.812 0 3.272-.543 4.38-1.628 1.108-1.087 1.662-2.52 1.662-4.303 0-1.527-.494-2.89-1.482-4.087-.988-1.198-2.418-1.797-4.29-1.797H4.682v11.814zm27.432 16.24c-3.115 0-5.544-1.154-7.29-3.46-1.743-2.306-2.616-5.166-2.616-8.58 0-3.608.98-6.49 2.943-8.647 1.962-2.156 4.403-3.234 7.323-3.234 3.13 0 5.597 1.134 7.4 3.402 1.805 2.27 2.707 5.103 2.707 8.502 0 3.534-.973 6.42-2.92 8.66-1.946 2.237-4.462 3.356-7.546 3.356zm.27-2.898c1.796 0 3.3-.742 4.514-2.225 1.213-1.482 1.82-3.788 1.82-6.918 0-3.144-.637-5.424-1.91-6.84-1.273-1.414-2.763-2.122-4.47-2.122-1.752 0-3.234.715-4.447 2.145-1.212 1.43-1.818 3.695-1.818 6.795 0 3.28.606 5.626 1.82 7.04 1.212 1.416 2.71 2.124 4.49 2.124zm11.333-3.595l3.37-.696c.747 2.86 3.113 4.29 7.096 4.29 1.468 0 2.71-.33 3.73-.99 1.017-.658 1.526-1.587 1.526-2.784 0-1.782-1.296-2.913-3.887-3.392l-4.784-.898c-1.872-.36-3.362-1.064-4.47-2.112-1.11-1.048-1.663-2.433-1.663-4.155 0-1.903.757-3.494 2.27-4.774 1.51-1.28 3.548-1.92 6.108-1.92 4.927 0 7.966 1.924 9.12 5.772l-3.235.696c-.928-2.366-2.837-3.55-5.727-3.55-1.438 0-2.617.297-3.538.89-.92.59-1.38 1.417-1.38 2.48 0 1.678 1.174 2.733 3.525 3.168l4.425.786c4.627.838 6.94 3.077 6.94 6.716 0 2.08-.86 3.762-2.583 5.042-1.722 1.28-4.013 1.92-6.873 1.92-5.376 0-8.7-2.163-9.973-6.49zm34.57 3.46v2.784c-1.244.164-2.322.246-3.235.246-4.388 0-6.58-2.29-6.58-6.873V12.077H64.45V9.314h4.02l.158-5.705 3.28-.315v6.02h5.075v2.762h-5.076v14.24c0 2.336 1.213 3.504 3.64 3.504.808 0 1.72-.08 2.74-.246z" fill="#DD390A"/></g></svg>